<svg id="Layer_2" data-name="Layer 2" xmlns="http://www.w3.org/2000/svg" viewBox="0 0 1460 400"><path d="M343.671,98.979a.7.7,0,0,1-.471-.183l-1.7-1.553-2.253.493a.7.7,0,0,1-.817-.472l-.7-2.2-2.2-.7a.7.7,0,0,1-.472-.817l.493-2.254L334,89.592a.7.7,0,0,1,0-.943l1.553-1.7-.493-2.253a.7.7,0,0,1,.472-.817l2.2-.7.7-2.2a.7.7,0,0,1,.667-.488.773.773,0,0,1,.15.016L341.5,81l1.7-1.553a.7.7,0,0,1,.943,0l1.7,1.553,2.254-.493a.771.771,0,0,1,.149-.016.7.7,0,0,1,.667.488l.7,2.2,2.2.7a.7.7,0,0,1,.472.817l-.494,2.253,1.555,1.7a.7.7,0,0,1,0,.943l-1.555,1.7.494,2.254a.7.7,0,0,1-.472.817l-2.2.7-.7,2.2a.7.7,0,0,1-.816.472l-2.254-.493-1.7,1.553A.7.7,0,0,1,343.671,98.979Z" style="fill:#fff"/><path d="M343.671,79.962l1.972,1.8,2.607-.571.809,2.543,2.543.809-.571,2.607,1.8,1.972-1.8,1.973L351.6,93.7l-2.543.809-.809,2.543-2.607-.571-1.972,1.8-1.972-1.8-2.607.571-.809-2.543L335.74,93.7l.57-2.607-1.8-1.973,1.8-1.972-.57-2.607,2.543-.809.809-2.543,2.607.571,1.972-1.8m0-1.4a1.4,1.4,0,0,0-.943.365l-1.437,1.31-1.9-.416a1.4,1.4,0,0,0-1.633.944l-.59,1.853-1.853.589a1.4,1.4,0,0,0-.943,1.634l.416,1.9-1.31,1.437a1.4,1.4,0,0,0,0,1.886l1.31,1.438-.416,1.9a1.4,1.4,0,0,0,.943,1.634l1.853.589.59,1.853a1.4,1.4,0,0,0,1.633.943l1.9-.416,1.437,1.31a1.4,1.4,0,0,0,1.886,0L346.051,98l1.9.416a1.4,1.4,0,0,0,1.633-.943l.59-1.853,1.853-.589a1.4,1.4,0,0,0,.943-1.634l-.416-1.9,1.31-1.438a1.4,1.4,0,0,0,0-1.886l-1.31-1.437.416-1.9a1.4,1.4,0,0,0-.943-1.634l-1.853-.589-.59-1.853a1.4,1.4,0,0,0-1.633-.944l-1.9.416-1.437-1.31a1.4,1.4,0,0,0-.943-.365Z" style="fill:#fff"/><path d="M898.678,325.109H822.914a28.114,28.114,0,0,1-19.879-8.234l-21.669-21.669" style="fill:none;stroke:#899299;stroke-linejoin:round;stroke-width:5px"/><polygon points="888.719 316.632 897.2 325.109 888.719 333.586 895.916 333.586 904.393 325.109 895.916 316.632 888.719 316.632" style="fill:#899299"/><path d="M558.6,325.109h75.764a28.114,28.114,0,0,0,19.879-8.234l21.669-21.669" style="fill:none;stroke:#899299;stroke-linejoin:round;stroke-width:5px"/><polygon points="568.554 333.586 560.073 325.109 568.554 316.632 561.357 316.632 552.88 325.109 561.357 333.586 568.554 333.586" style="fill:#899299"/><path d="M901.06,87.994H825.3a28.111,28.111,0,0,0-19.879,8.234L783.747,117.9" style="fill:none;stroke:#899299;stroke-linejoin:round;stroke-width:5px"/><polygon points="891.1 79.517 899.582 87.994 891.1 96.47 898.298 96.47 906.774 87.994 898.298 79.517 891.1 79.517" style="fill:#899299"/><path d="M560.976,87.994H636.74a28.108,28.108,0,0,1,19.879,8.234l21.67,21.669" style="fill:none;stroke:#899299;stroke-linejoin:round;stroke-width:5px"/><polygon points="570.936 96.47 562.454 87.994 570.936 79.517 563.738 79.517 555.262 87.994 563.738 96.47 570.936 96.47" style="fill:#899299"/><circle cx="726.544" cy="203.183" r="109.783" transform="translate(361.871 863.609) rotate(-76.717)" style="fill:#1e3566"/><path d="M726.544,95.9A107.283,107.283,0,1,1,619.262,203.182,107.282,107.282,0,0,1,726.544,95.9m0-5a112.283,112.283,0,1,0,79.4,32.887,111.544,111.544,0,0,0-79.4-32.887Z" style="fill:#e7edf0"/><circle cx="990.203" cy="308.109" r="69.424" style="fill:#b8a970"/><path d="M990.2,241.185a66.924,66.924,0,1,1-66.924,66.924A66.924,66.924,0,0,1,990.2,241.185m0-5a71.924,71.924,0,1,0,71.924,71.924A72.005,72.005,0,0,0,990.2,236.185Z" style="fill:#eae5d4"/><circle cx="472.551" cy="87.993" r="69.424" transform="translate(2.297 187.535) rotate(-22.5)" style="fill:#faa31b"/><path d="M472.551,21.07a66.924,66.924,0,1,1-66.924,66.924A66.924,66.924,0,0,1,472.551,21.07m0-5a71.924,71.924,0,1,0,71.923,71.924A72.005,72.005,0,0,0,472.551,16.07Z" style="fill:#fde3ba"/><circle cx="472.551" cy="310.157" r="69.424" transform="translate(-82.721 204.446) rotate(-22.5)" style="fill:#88afbf"/><path d="M472.551,243.234a66.924,66.924,0,1,1-66.924,66.923,66.923,66.923,0,0,1,66.924-66.923m0-5a71.924,71.924,0,1,0,71.923,71.923,72.005,72.005,0,0,0-71.923-71.923Z" style="fill:#dbe7ec"/><path d="M707.6,176.907h-5.2V164.229H691.844v12.678h-5.2V154.871c0-1.8,0-3.239-.72-4.159a2.735,2.735,0,0,0-1.76-1v-.361h7.679v11.918H702.4V149.351h5.2Z" style="fill:#fff"/><path d="M722.5,177.667c-5.719,0-10.318-4.52-10.318-10.878,0-6.32,4.6-10.838,10.318-10.838,5.679,0,10.278,4.518,10.278,10.838C732.781,173.147,728.182,177.667,722.5,177.667Zm0-18.8c-2.88,0-5.079,3.04-5.079,7.919,0,4.8,2.159,7.919,5.079,7.919s5.039-3.12,5.039-7.919C727.542,161.91,725.422,158.87,722.5,158.87Z" style="fill:#fff"/><path d="M755.065,171.028c1.4-3.72,3.36-10.358,3.639-14.6h4.88l-7.359,20.477h-4.28l-3.2-12.6-3.439,12.6h-4.28l-7.158-20.477h5.4l4.719,14.6,3.52-14.6h3.479Z" style="fill:#fff"/><path d="M678.434,201.989c-1.561-1.64-3.56-3.119-5.48-3.119-1.8,0-3.119.92-3.119,2.279,0,1.72,2.239,2.32,4.519,3.24,3.2,1.24,6.958,2.839,6.958,6.639,0,4.2-4.079,6.639-8.318,6.639a17.605,17.605,0,0,1-8.518-2.6l2.08-3.68c1.679,1.6,4.279,3.321,6.438,3.321,2.04,0,3.4-.92,3.4-2.321,0-1.719-2.44-2.479-4.759-3.519-3.04-1.36-6.719-2.879-6.719-6.639,0-3.919,4.119-6.278,8.238-6.278a16.013,16.013,0,0,1,7.439,2.159Z" style="fill:#fff"/><path d="M697.338,215.067a14.659,14.659,0,0,1-7.2,2.359,4.47,4.47,0,0,1-3.44-1.4,6.117,6.117,0,0,1-1.12-4V190.511l4.96-1.2v7.119h5.6v3.039h-5.6v12.2c0,1.519.8,2.04,1.8,2.04a12.962,12.962,0,0,0,4.04-1.12Z" style="fill:#fff"/><path d="M709.049,217.667c-5.719,0-10.319-4.52-10.319-10.878,0-6.32,4.6-10.838,10.319-10.838,5.679,0,10.278,4.518,10.278,10.838C719.327,213.147,714.728,217.667,709.049,217.667Zm0-18.8c-2.88,0-5.079,3.04-5.079,7.919,0,4.8,2.159,7.919,5.079,7.919s5.039-3.12,5.039-7.919C714.088,201.91,711.968,198.87,709.049,198.87Z" style="fill:#fff"/><path d="M740.735,214.867a12.333,12.333,0,0,1-7.8,2.8,10.317,10.317,0,0,1-10.478-10.6c0-6.6,4.4-11.118,10.6-11.118a14.551,14.551,0,0,1,7.479,2.239l-1.96,3.879c-2.519-2.359-3.8-3.2-5.759-3.2-2.28,0-5.119,2.319-5.119,7.2,0,5.439,3.079,8.439,6.119,8.439a10.728,10.728,0,0,0,5.559-2.041Z" style="fill:#fff"/><path d="M754.181,205.069l10.2,11.838h-6.4l-8.558-10v10h-5V186.232h5v19.437c5.119-5.16,6.759-7.2,7.558-9.239h6.12Z" style="fill:#fff"/><path d="M779.876,201.989c-1.56-1.64-3.56-3.119-5.48-3.119-1.8,0-3.119.92-3.119,2.279,0,1.72,2.24,2.32,4.519,3.24,3.2,1.24,6.959,2.839,6.959,6.639,0,4.2-4.079,6.639-8.318,6.639a17.609,17.609,0,0,1-8.519-2.6l2.08-3.68c1.68,1.6,4.279,3.321,6.439,3.321,2.04,0,3.4-.92,3.4-2.321,0-1.719-2.44-2.479-4.759-3.519-3.04-1.36-6.719-2.879-6.719-6.639,0-3.919,4.12-6.278,8.239-6.278a16.008,16.008,0,0,1,7.438,2.159Z" style="fill:#fff"/><path d="M704.136,251.028c1.4-3.72,3.359-10.358,3.638-14.6h4.88L705.3,256.907h-4.279l-3.2-12.6-3.439,12.6H690.1l-7.159-20.477h5.4l4.72,14.6,3.519-14.6h3.48Z" style="fill:#fff"/><path d="M724.057,257.667c-5.719,0-10.319-4.52-10.319-10.878,0-6.32,4.6-10.838,10.319-10.838,5.678,0,10.278,4.518,10.278,10.838C734.335,253.147,729.735,257.667,724.057,257.667Zm0-18.8c-2.88,0-5.079,3.04-5.079,7.919,0,4.8,2.159,7.919,5.079,7.919s5.039-3.12,5.039-7.919C729.1,241.91,726.976,238.87,724.057,238.87Z" style="fill:#fff"/><path d="M750.908,240.349a9.9,9.9,0,0,0-3.839-1.039,7.143,7.143,0,0,0-3.479,1.039v16.558h-5V236.43h1.159a3.884,3.884,0,0,0,1.96.6,6.494,6.494,0,0,0,2.119-.439,13.84,13.84,0,0,1,4.239-.72,13.441,13.441,0,0,1,4.32.76Z" style="fill:#fff"/><path d="M764.892,245.069l10.2,11.838h-6.4l-8.558-10v10h-5V226.232h5v19.437c5.119-5.16,6.759-7.2,7.558-9.239h6.12Z" style="fill:#fff"/><path d="M511.308,57.343H433.793a1.582,1.582,0,0,0-1.582,1.582v58.137a1.582,1.582,0,0,0,1.582,1.582h77.515a1.582,1.582,0,0,0,1.582-1.582V58.925A1.582,1.582,0,0,0,511.308,57.343Zm-1.582,11.69a10.164,10.164,0,0,1-9.071-8.526h9.071Zm0,.887v35.2a11.046,11.046,0,0,0-10.061,10.356H444.928a11.044,11.044,0,0,0-9.553-10.3V69.86a11.05,11.05,0,0,0,9.459-9.353H499.76A11.05,11.05,0,0,0,509.726,69.92Zm-65.788-9.413a10.163,10.163,0,0,1-8.563,8.458V60.507Zm-8.563,45.572a10.158,10.158,0,0,1,8.667,9.4h-8.667Zm65.176,9.4a10.162,10.162,0,0,1,9.175-9.47v9.47Z" style="fill:#fff"/><path d="M452.617,74.474h41.114c.43,0,.778-.227.778-.506s-.348-.507-.778-.507H452.617c-.429,0-.778.227-.778.507S452.188,74.474,452.617,74.474Z" style="fill:#fff"/><path d="M493.731,82.274H452.617c-.429,0-.778.227-.778.507s.349.506.778.506h41.114c.43,0,.778-.227.778-.506S494.161,82.274,493.731,82.274Z" style="fill:#fff"/><path d="M473.843,91.039l1.248,1.137,1.65-.361.512,1.609,1.609.512-.361,1.65,1.137,1.248L478.5,98.082l.361,1.65-1.609.512-.512,1.609-1.65-.361-1.248,1.137-1.248-1.137-1.65.361-.512-1.609-1.609-.512.361-1.65-1.138-1.248,1.138-1.248-.361-1.65,1.609-.512.512-1.609,1.65.361,1.248-1.137m0-.886a.884.884,0,0,0-.6.231l-.909.829-1.2-.263a.884.884,0,0,0-1.034.6l-.373,1.173-1.173.373a.887.887,0,0,0-.6,1.034l.264,1.2-.829.909a.885.885,0,0,0,0,1.194l.829.909-.264,1.2a.887.887,0,0,0,.6,1.034l1.173.373.373,1.173a.885.885,0,0,0,.844.617.959.959,0,0,0,.19-.02l1.2-.264.909.829a.887.887,0,0,0,1.194,0l.909-.829,1.2.264a.951.951,0,0,0,.19.02.886.886,0,0,0,.844-.617l.373-1.173,1.173-.373a.886.886,0,0,0,.6-1.034l-.263-1.2.829-.909a.887.887,0,0,0,0-1.194l-.829-.909.263-1.2a.886.886,0,0,0-.6-1.034l-1.173-.373-.373-1.173a.884.884,0,0,0-1.034-.6l-1.2.263-.909-.829a.884.884,0,0,0-.6-.231Z" style="fill:#fff"/><path d="M484.327,300.61c-2.15-2.366-6.452-5.448-10.251-5.448-3.226,0-7.24,1.506-7.24,5.663,0,4.516,5.806,6.093,9.175,7.455,5.95,2.366,13.118,5.592,13.118,12.688,0,7.384-6.164,12.115-12.9,12.831v8.173h-4.8v-8.1a30.949,30.949,0,0,1-13.476-4.731l3.3-5.878c2.724,2.58,8.1,6.021,12.544,6.021,4.588,0,7.742-2.437,7.742-5.806,0-3.727-4.086-5.806-9.534-7.957-6.523-2.508-13.189-5.878-13.189-12.688,0-6.881,6.38-11.469,12.974-12.186v-6.953h4.8v6.953a26.86,26.86,0,0,1,11.111,3.871Z" style="fill:#fff"/><path d="M513.056,306.05a2.037,2.037,0,0,1-2.037-2.037,36.937,36.937,0,0,0-11.31-26.618,2.037,2.037,0,1,1,2.844-2.917,40.98,40.98,0,0,1,12.539,29.535A2.036,2.036,0,0,1,513.056,306.05Z" style="fill:#fff"/><path d="M431.625,306.05a2.037,2.037,0,0,1-2.037-2.037c0-23.017,19.179-41.744,42.752-41.744a43,43,0,0,1,30.213,12.209,2.037,2.037,0,0,1-2.844,2.917,38.951,38.951,0,0,0-27.369-11.052c-21.327,0-38.679,16.9-38.679,37.67A2.036,2.036,0,0,1,431.625,306.05Z" style="fill:#fff"/><path d="M514.574,308.6,498.425,298.5a2.037,2.037,0,1,1,2.159-3.454l12.773,7.985,8.176-12.44a2.037,2.037,0,0,1,3.4,2.237Z" style="fill:#fff"/><path d="M445.191,347.03a2.027,2.027,0,0,1-1.422-.579,41,41,0,0,1-12.525-29.535,2.037,2.037,0,1,1,4.073,0,36.959,36.959,0,0,0,11.3,26.62,2.037,2.037,0,0,1-1.423,3.494Z" style="fill:#fff"/><path d="M473.947,358.661a42.924,42.924,0,0,1-30.178-12.21,2.037,2.037,0,0,1,2.845-2.915,38.871,38.871,0,0,0,27.333,11.052c21.3,0,38.63-16.9,38.63-37.672a2.037,2.037,0,1,1,4.073,0C516.65,339.934,497.493,358.661,473.947,358.661Z" style="fill:#fff"/><path d="M423.112,331.255a2.037,2.037,0,0,1-1.7-3.154l10.352-15.77,16.133,10.1a2.036,2.036,0,1,1-2.161,3.452L432.981,317.9l-8.165,12.438A2.033,2.033,0,0,1,423.112,331.255Z" style="fill:#fff"/><path d="M974.405,286.579v47.4a.6.6,0,0,0,1.2,0v-47.4a.6.6,0,0,0-1.2,0Z" style="fill:#fff"/><path d="M1028.847,277.551a.6.6,0,1,0-1.2,0v35.988a24.82,24.82,0,0,0-41.414,23.828H940.747a1.885,1.885,0,0,0,0,3.762h46.765a24.823,24.823,0,1,0,41.335-26.33Zm-18.545,74.8a21.067,21.067,0,1,1,21.067-21.067A21.091,21.091,0,0,1,1010.3,352.352Z" style="fill:#fff"/><path d="M946.039,312.161a7.035,7.035,0,0,0,6.061-10.634l19.558-19.557a7.013,7.013,0,0,0,7.032-.2l14.335,13.327a7.052,7.052,0,1,0,12.224-.486l19.8-21.6a7.077,7.077,0,1,0-2.772-2.544l-19.8,21.6a6.987,6.987,0,0,0-6.889.277l-14.332-13.324a7.052,7.052,0,1,0-12.307.341L949.4,298.911a7.05,7.05,0,1,0-3.357,13.25Zm82.206-48.712a3.289,3.289,0,1,1-3.288,3.289A3.293,3.293,0,0,1,1028.245,263.449Zm-28.968,31.6a3.289,3.289,0,1,1-3.288,3.289A3.293,3.293,0,0,1,999.277,295.05Zm-24.27-22.572a3.289,3.289,0,1,1-3.289,3.289A3.292,3.292,0,0,1,975.007,272.478Zm-28.968,29.344a3.289,3.289,0,1,1-3.289,3.289A3.292,3.292,0,0,1,946.039,301.822Z" style="fill:#fff"/><path d="M945.437,315.923v18.058a.6.6,0,0,0,1.2,0V315.923a.6.6,0,0,0-1.2,0Z" style="fill:#fff"/><path id="Fill-1" d="M996.011,331a1.412,1.412,0,1,0-2,2l15.254,15.254a1.412,1.412,0,0,0,2,0L1026.588,333a1.412,1.412,0,1,0-1.992-2l-12.918,12.856V315.315a1.412,1.412,0,0,0-2.824,0v28.531Z" style="fill:#fff"/><path d="M175.942,63.667a6.082,6.082,0,0,0-4.62-2.38c-3.024,0-6.048,2.575-6.048,8.26,0,5.824,3.612,8.4,6.692,8.4a8.163,8.163,0,0,0,4.9-1.9v2.408a10.371,10.371,0,0,1-5.488,1.315c-4.956,0-9.464-3.248-9.464-10.107,0-6.244,3.976-10.221,9.464-10.221a12.115,12.115,0,0,1,5.74,1.54Z"/><path d="M186.119,79.8c-3.948,0-7.112-3.164-7.112-7.617,0-4.423,3.164-7.587,7.112-7.587,3.892,0,7.056,3.164,7.056,7.587C193.175,76.631,190.04,79.8,186.119,79.8Zm0-13.441c-2.267,0-4,2.38-4,5.824,0,3.361,1.68,5.852,4,5.852,2.268,0,3.976-2.464,3.976-5.852C190.1,68.762,188.416,66.354,186.119,66.354Z"/><path d="M213.315,79.262V71.114a6.768,6.768,0,0,0-.531-3.079,2.86,2.86,0,0,0-2.52-1.485,4.9,4.9,0,0,0-2.828.953,8.7,8.7,0,0,1,.335,3.164v8.595h-2.883V70a4.635,4.635,0,0,0-.308-2.072,2.533,2.533,0,0,0-2.352-1.4,5.533,5.533,0,0,0-2.913.924V79.262H196.4V64.926h.421a3.25,3.25,0,0,0,1.484.42c1.2,0,2.268-.811,4.312-.811a5.2,5.2,0,0,1,3.752,1.344,8.373,8.373,0,0,1,4.423-1.344,5.038,5.038,0,0,1,4.593,2.407,7.715,7.715,0,0,1,.867,3.948v8.372Z"/><path d="M220.789,64.926a3.2,3.2,0,0,0,1.54.42,4.2,4.2,0,0,0,1.344-.307,8.125,8.125,0,0,1,2.828-.5,6.281,6.281,0,0,1,4.928,2.3,8.59,8.59,0,0,1,1.876,5.376c0,3.863-2.24,7.588-6.692,7.588a8.622,8.622,0,0,1-3.472-.785V86.6H220.2V64.926Zm5.376,13.02c2.52,0,4.06-2.155,4.06-5.907,0-3.025-1.54-5.628-4.312-5.628a5.065,5.065,0,0,0-2.772.867v9.8A6.274,6.274,0,0,0,226.165,77.946Z"/><path d="M248.08,79.262a2.764,2.764,0,0,0-1.372-.42,4.652,4.652,0,0,0-1.372.336,7.546,7.546,0,0,1-2.828.617,6.366,6.366,0,0,1-5.46-2.8,8.512,8.512,0,0,1-1.288-4.677,7.544,7.544,0,0,1,3-6.355,6.7,6.7,0,0,1,4.256-1.4,9.541,9.541,0,0,1,3.416.645l2.24-.533V79.262ZM245.7,67.138a4.887,4.887,0,0,0-2.492-.7c-2.24,0-4.34,1.792-4.34,5.685,0,2.267.588,3.947,1.792,4.927a3.394,3.394,0,0,0,2.24.84,4.547,4.547,0,0,0,2.8-1.063Z"/><path d="M261.9,79.262V71.255a6.357,6.357,0,0,0-.644-3.3,2.835,2.835,0,0,0-2.631-1.429,5.894,5.894,0,0,0-2.968.84v11.9h-2.941V64.926h.589a3.148,3.148,0,0,0,1.427.42,4.317,4.317,0,0,0,1.429-.28,9,9,0,0,1,2.911-.531A5.4,5.4,0,0,1,263.86,66.8a7.049,7.049,0,0,1,1.009,4.088v8.372Z"/><path d="M270.289,62.323a1.86,1.86,0,0,1-1.82-1.849,1.822,1.822,0,0,1,1.82-1.847,1.845,1.845,0,0,1,1.848,1.847A1.883,1.883,0,0,1,270.289,62.323Zm-1.456,16.939V64.926h2.94V79.262Z"/><path d="M282.156,79.766c-4.144,0-7.113-3.3-7.113-7.588,0-4.339,3.025-7.616,7.029-7.616a5.84,5.84,0,0,1,6.159,6.16,10.3,10.3,0,0,1-.084,1.233l-10.023.252c.14,3.387,2.1,5.628,4.731,5.628a7.6,7.6,0,0,0,4.089-1.429l.84,1.484A9.155,9.155,0,0,1,282.156,79.766Zm2.884-9.855c0-2.324-1.344-3.584-2.884-3.584-1.989,0-3.613,1.567-3.892,4.172l6.776-.281Z"/><path d="M299.994,68.426a5.513,5.513,0,0,0-3.864-2.072c-1.428,0-2.492.784-2.492,1.876,0,1.345,1.653,1.849,3.388,2.521,2.24.895,4.844,1.9,4.844,4.479,0,2.884-2.8,4.565-5.683,4.565a12.115,12.115,0,0,1-5.741-1.708l1.2-2.325c1.121,1.065,2.912,2.268,4.508,2.268,1.624,0,2.772-.84,2.772-1.932,0-1.372-1.792-2.015-3.584-2.744-2.184-.895-4.648-1.987-4.648-4.479,0-2.66,2.772-4.284,5.6-4.284a10.2,10.2,0,0,1,4.956,1.4Z"/><path d="M313.965,62.323a1.859,1.859,0,0,1-1.819-1.849,1.822,1.822,0,0,1,1.819-1.847,1.845,1.845,0,0,1,1.848,1.847A1.883,1.883,0,0,1,313.965,62.323ZM312.51,79.262V64.926h2.94V79.262Z"/><path d="M328.153,68.426a5.511,5.511,0,0,0-3.863-2.072c-1.429,0-2.493.784-2.493,1.876,0,1.345,1.653,1.849,3.389,2.521,2.239.895,4.843,1.9,4.843,4.479,0,2.884-2.8,4.565-5.683,4.565a12.115,12.115,0,0,1-5.741-1.708l1.2-2.325c1.12,1.065,2.912,2.268,4.507,2.268,1.624,0,2.772-.84,2.772-1.932,0-1.372-1.792-2.015-3.584-2.744-2.184-.895-4.648-1.987-4.648-4.479,0-2.66,2.772-4.284,5.6-4.284a10.2,10.2,0,0,1,4.956,1.4Z"/><path d="M341.61,68.426a5.513,5.513,0,0,0-3.864-2.072c-1.428,0-2.492.784-2.492,1.876,0,1.345,1.652,1.849,3.388,2.521,2.24.895,4.844,1.9,4.844,4.479,0,2.884-2.8,4.565-5.684,4.565a12.115,12.115,0,0,1-5.74-1.708l1.2-2.325c1.12,1.065,2.912,2.268,4.508,2.268,1.624,0,2.772-.84,2.772-1.932,0-1.372-1.792-2.015-3.584-2.744-2.184-.895-4.648-1.987-4.648-4.479,0-2.66,2.772-4.284,5.6-4.284a10.2,10.2,0,0,1,4.956,1.4Z"/><path d="M357.959,79.262a3.259,3.259,0,0,0-1.428-.42,4.156,4.156,0,0,0-1.4.281,9.136,9.136,0,0,1-2.94.559,5.537,5.537,0,0,1-4.816-2.3,7.437,7.437,0,0,1-.98-4.087V64.926h2.94v8.008a6.486,6.486,0,0,0,.644,3.332,2.962,2.962,0,0,0,2.66,1.428,5.8,5.8,0,0,0,2.94-.867v-11.9h2.968V79.262Z"/><path d="M368.854,79.766c-4.145,0-7.113-3.3-7.113-7.588,0-4.339,3.025-7.616,7.029-7.616a5.84,5.84,0,0,1,6.159,6.16,10.507,10.507,0,0,1-.084,1.233l-10.024.252c.14,3.387,2.1,5.628,4.732,5.628a7.6,7.6,0,0,0,4.089-1.429l.839,1.484A9.151,9.151,0,0,1,368.854,79.766Zm2.883-9.855c0-2.324-1.343-3.584-2.883-3.584-1.989,0-3.613,1.567-3.893,4.172l6.776-.281Z"/><path d="M101.97,102.026a5.513,5.513,0,0,0-3.864-2.072c-1.428,0-2.492.784-2.492,1.876,0,1.344,1.653,1.848,3.388,2.52,2.24.9,4.844,1.9,4.844,4.48,0,2.884-2.8,4.564-5.683,4.564a12.1,12.1,0,0,1-5.741-1.708l1.2-2.324c1.121,1.064,2.913,2.268,4.508,2.268,1.624,0,2.772-.84,2.772-1.932,0-1.372-1.792-2.016-3.584-2.744-2.184-.9-4.648-1.988-4.648-4.48,0-2.66,2.772-4.284,5.6-4.284a10.193,10.193,0,0,1,4.956,1.4Z"/><path d="M109.973,113.226a2.8,2.8,0,0,1-2.213-.9,3.962,3.962,0,0,1-.756-2.6V94.438l2.912-.756v4.844h3.948v1.792h-3.948v9.268c0,1.064.561,1.456,1.344,1.456a8.386,8.386,0,0,0,2.828-.868l.617,1.484A9.809,9.809,0,0,1,109.973,113.226Z"/><path d="M122.883,113.394c-3.948,0-7.112-3.164-7.112-7.616,0-4.424,3.164-7.588,7.112-7.588,3.892,0,7.056,3.164,7.056,7.588C129.939,110.23,126.8,113.394,122.883,113.394Zm0-13.44c-2.268,0-4,2.38-4,5.824,0,3.36,1.68,5.852,4,5.852,2.268,0,3.976-2.464,3.976-5.852C126.859,102.362,125.179,99.954,122.883,99.954Z"/><path d="M139.506,113.338a7.042,7.042,0,0,1-7.168-7.364c0-4.564,3.025-7.812,7.2-7.812a9.844,9.844,0,0,1,4.984,1.456l-1.176,2.436c-1.233-1.26-2.408-2.1-3.892-2.1-1.876,0-3.976,1.96-3.976,5.292,0,3.976,2.268,6.188,4.675,6.188a6.98,6.98,0,0,0,3.892-1.4l.812,1.456A8.366,8.366,0,0,1,139.506,113.338Z"/><path d="M160.545,112.862h-3.724l-6.328-7.112v7.112h-2.94V91.386h2.94v13.748c3.248-3.22,4.9-5.18,5.46-6.608h3.724l-6.3,6.3Z"/><path d="M171.333,102.026a5.509,5.509,0,0,0-3.863-2.072c-1.429,0-2.492.784-2.492,1.876,0,1.344,1.652,1.848,3.388,2.52,2.239.9,4.843,1.9,4.843,4.48,0,2.884-2.8,4.564-5.683,4.564a12.1,12.1,0,0,1-5.74-1.708l1.2-2.324c1.12,1.064,2.912,2.268,4.508,2.268,1.624,0,2.772-.84,2.772-1.932,0-1.372-1.792-2.016-3.584-2.744-2.185-.9-4.648-1.988-4.648-4.48,0-2.66,2.772-4.284,5.6-4.284a10.2,10.2,0,0,1,4.956,1.4Z"/><path d="M186.621,113.226a2.8,2.8,0,0,1-2.212-.9,3.956,3.956,0,0,1-.756-2.6V94.438l2.912-.756v4.844h3.948v1.792h-3.948v9.268c0,1.064.56,1.456,1.344,1.456a8.386,8.386,0,0,0,2.828-.868l.616,1.484A9.805,9.805,0,0,1,186.621,113.226Z"/><path d="M199.531,113.394c-3.948,0-7.112-3.164-7.112-7.616,0-4.424,3.164-7.588,7.112-7.588,3.892,0,7.056,3.164,7.056,7.588C206.587,110.23,203.452,113.394,199.531,113.394Zm0-13.44c-2.267,0-4,2.38-4,5.824,0,3.36,1.681,5.852,4,5.852,2.268,0,3.976-2.464,3.976-5.852C203.507,102.362,201.828,99.954,199.531,99.954Z"/><path d="M225.011,100.878a6.3,6.3,0,0,0-2.576-.644,5.269,5.269,0,0,0-2.632.756v11.872h-2.94V98.526h.588a2.822,2.822,0,0,0,1.428.42,5.2,5.2,0,0,0,1.484-.308,8.316,8.316,0,0,1,5.544-.056Z"/><path d="M238.8,112.862a2.764,2.764,0,0,0-1.372-.42,4.652,4.652,0,0,0-1.372.336,7.567,7.567,0,0,1-2.828.616,6.364,6.364,0,0,1-5.46-2.8,8.506,8.506,0,0,1-1.288-4.676,7.547,7.547,0,0,1,3-6.356,6.707,6.707,0,0,1,4.256-1.4,9.567,9.567,0,0,1,3.416.644l2.24-.532v14.588Zm-2.38-12.124a4.887,4.887,0,0,0-2.492-.7c-2.24,0-4.34,1.792-4.34,5.684,0,2.268.588,3.948,1.792,4.928a3.394,3.394,0,0,0,2.24.84,4.541,4.541,0,0,0,2.8-1.064Z"/><path d="M245.025,95.923a1.86,1.86,0,0,1-1.82-1.849,1.823,1.823,0,0,1,1.82-1.848,1.846,1.846,0,0,1,1.848,1.848A1.884,1.884,0,0,1,245.025,95.923Zm-1.456,16.939V98.526h2.94v14.336Z"/><path d="M259.212,102.026a5.509,5.509,0,0,0-3.863-2.072c-1.429,0-2.493.784-2.493,1.876,0,1.344,1.653,1.848,3.389,2.52,2.239.9,4.843,1.9,4.843,4.48,0,2.884-2.8,4.564-5.683,4.564a12.1,12.1,0,0,1-5.74-1.708l1.2-2.324c1.12,1.064,2.912,2.268,4.507,2.268,1.624,0,2.772-.84,2.772-1.932,0-1.372-1.792-2.016-3.584-2.744-2.184-.9-4.648-1.988-4.648-4.48,0-2.66,2.772-4.284,5.6-4.284a10.2,10.2,0,0,1,4.956,1.4Z"/><path d="M270.46,113.366c-4.144,0-7.112-3.3-7.112-7.588,0-4.34,3.025-7.616,7.028-7.616a5.84,5.84,0,0,1,6.16,6.16,10.491,10.491,0,0,1-.084,1.232l-10.024.252c.14,3.388,2.1,5.628,4.732,5.628a7.605,7.605,0,0,0,4.089-1.428l.839,1.484A9.152,9.152,0,0,1,270.46,113.366Zm2.884-9.856c0-2.324-1.344-3.584-2.884-3.584-1.988,0-3.612,1.568-3.892,4.172l6.776-.28Z"/><path d="M303.892,112.862v-8.148a6.754,6.754,0,0,0-.532-3.08,2.861,2.861,0,0,0-2.52-1.484,4.9,4.9,0,0,0-2.828.952,8.682,8.682,0,0,1,.336,3.164v8.6h-2.884v-9.268a4.626,4.626,0,0,0-.308-2.072,2.533,2.533,0,0,0-2.352-1.4,5.524,5.524,0,0,0-2.912.924v11.816h-2.913V98.526h.421a3.253,3.253,0,0,0,1.484.42c1.2,0,2.268-.812,4.312-.812a5.2,5.2,0,0,1,3.752,1.344,8.385,8.385,0,0,1,4.424-1.344,5.038,5.038,0,0,1,4.592,2.408,7.7,7.7,0,0,1,.868,3.948v8.372Z"/><path d="M316.981,113.394c-3.948,0-7.112-3.164-7.112-7.616,0-4.424,3.164-7.588,7.112-7.588,3.892,0,7.056,3.164,7.056,7.588C324.037,110.23,320.9,113.394,316.981,113.394Zm0-13.44c-2.268,0-4,2.38-4,5.824,0,3.36,1.68,5.852,4,5.852,2.268,0,3.976-2.464,3.976-5.852C320.957,102.362,319.277,99.954,316.981,99.954Z"/><path d="M336.449,112.862v-8.008a6.372,6.372,0,0,0-.644-3.3,2.836,2.836,0,0,0-2.632-1.428,5.884,5.884,0,0,0-2.967.84v11.9h-2.941V98.526h.589a3.148,3.148,0,0,0,1.427.42,4.306,4.306,0,0,0,1.428-.28,9.01,9.01,0,0,1,2.912-.532,5.4,5.4,0,0,1,4.788,2.268,7.047,7.047,0,0,1,1.008,4.088v8.372Z"/><path d="M349.562,113.366c-4.145,0-7.113-3.3-7.113-7.588,0-4.34,3.025-7.616,7.029-7.616a5.84,5.84,0,0,1,6.159,6.16,10.491,10.491,0,0,1-.084,1.232l-10.024.252c.14,3.388,2.1,5.628,4.732,5.628a7.605,7.605,0,0,0,4.089-1.428l.839,1.484A9.151,9.151,0,0,1,349.562,113.366Zm2.883-9.856c0-2.324-1.343-3.584-2.883-3.584-1.989,0-3.613,1.568-3.893,4.172l6.776-.28Z"/><path d="M364.936,112.806a29.973,29.973,0,0,1-4.284,7.616l-2.268-1.764a14.808,14.808,0,0,0,4.48-5.8l-6.132-14.336h3.248l4.452,10.92c.476-1.148,1.988-5.18,2.24-5.936a29.2,29.2,0,0,0,1.232-4.984h2.94Z"/><path d="M372.8,113.254a1.859,1.859,0,0,1-1.82-1.848,1.834,1.834,0,1,1,1.82,1.848Z"/><path d="M61.1,289.351l-1.82-16.828-4.536,16.828h-2.6l-4.424-16.828-1.876,16.828H42.783L44.8,273.924a3.894,3.894,0,0,0-.476-2.913,1.687,1.687,0,0,0-1.232-.7v-.252h6.16l3.976,14.728a6.922,6.922,0,0,1,.252,1.12,10.927,10.927,0,0,1,.224-1.092l3.976-14.756h4.088l2.352,19.292Z"/><path d="M73.645,289.855c-4.145,0-7.113-3.3-7.113-7.588,0-4.34,3.025-7.616,7.029-7.616a5.84,5.84,0,0,1,6.159,6.16,10.521,10.521,0,0,1-.084,1.233l-10.024.252c.14,3.387,2.1,5.628,4.732,5.628a7.6,7.6,0,0,0,4.089-1.429l.839,1.484A9.151,9.151,0,0,1,73.645,289.855ZM76.528,280c0-2.325-1.343-3.584-2.883-3.584-1.989,0-3.613,1.567-3.893,4.172l6.776-.281Z"/><path d="M99.941,289.351V281.2a6.768,6.768,0,0,0-.531-3.079,2.859,2.859,0,0,0-2.52-1.485,4.9,4.9,0,0,0-2.828.952,8.709,8.709,0,0,1,.335,3.165v8.6H91.514v-9.267a4.642,4.642,0,0,0-.308-2.073,2.533,2.533,0,0,0-2.352-1.4,5.536,5.536,0,0,0-2.913.924v11.816H83.029V275.015h.421a3.25,3.25,0,0,0,1.484.42c1.2,0,2.268-.811,4.312-.811A5.2,5.2,0,0,1,93,275.967a8.381,8.381,0,0,1,4.424-1.343,5.037,5.037,0,0,1,4.592,2.407,7.7,7.7,0,0,1,.868,3.948v8.372Z"/><path d="M109.767,275.435a8.14,8.14,0,0,1,3.387-.784,6.214,6.214,0,0,1,5.124,2.38,8.848,8.848,0,0,1,1.624,5.236,8.516,8.516,0,0,1-1.175,4.649,6.36,6.36,0,0,1-5.544,2.939,8.44,8.44,0,0,1-3-.588,4.273,4.273,0,0,0-1.373-.336,2.392,2.392,0,0,0-1.372.42h-.616V267.876h2.941Zm2.8,12.516a3.574,3.574,0,0,0,3-1.428,6.511,6.511,0,0,0,1.26-4.143c0-3.752-1.54-5.88-4.059-5.88a6.576,6.576,0,0,0-3,.811v9.744A5.138,5.138,0,0,0,112.566,287.951Z"/><path d="M129.456,289.855c-4.144,0-7.112-3.3-7.112-7.588,0-4.34,3.024-7.616,7.028-7.616a5.84,5.84,0,0,1,6.159,6.16,10.308,10.308,0,0,1-.084,1.233l-10.023.252c.139,3.387,2.1,5.628,4.731,5.628a7.6,7.6,0,0,0,4.089-1.429l.84,1.484A9.152,9.152,0,0,1,129.456,289.855ZM132.34,280c0-2.325-1.344-3.584-2.884-3.584-1.988,0-3.612,1.567-3.893,4.172l6.777-.281Z"/><path d="M146.989,277.367a6.317,6.317,0,0,0-2.576-.644,5.272,5.272,0,0,0-2.632.756v11.872h-2.94V275.015h.589a2.816,2.816,0,0,0,1.427.42,5.2,5.2,0,0,0,1.484-.307,8.324,8.324,0,0,1,5.544-.057Z"/><path d="M158.41,278.515a5.513,5.513,0,0,0-3.864-2.072c-1.428,0-2.492.784-2.492,1.876,0,1.345,1.652,1.849,3.388,2.521,2.24.9,4.844,1.9,4.844,4.479,0,2.884-2.8,4.564-5.683,4.564a12.1,12.1,0,0,1-5.741-1.708l1.2-2.324c1.121,1.065,2.913,2.268,4.508,2.268,1.624,0,2.772-.84,2.772-1.932,0-1.372-1.792-2.015-3.584-2.744-2.184-.895-4.648-1.987-4.648-4.479,0-2.661,2.772-4.285,5.6-4.285a10.2,10.2,0,0,1,4.956,1.4Z"/><path d="M176.861,289.883c-3.947,0-7.111-3.164-7.111-7.616,0-4.424,3.164-7.588,7.111-7.588,3.893,0,7.057,3.164,7.057,7.588C183.918,286.719,180.782,289.883,176.861,289.883Zm0-13.44c-2.267,0-4,2.38-4,5.824,0,3.361,1.681,5.852,4,5.852,2.269,0,3.977-2.464,3.977-5.852C180.838,278.851,179.158,276.443,176.861,276.443Z"/><path d="M195.266,270.311a6.927,6.927,0,0,0-2.912-1.008c-1.456,0-2.24,1.26-2.24,4.48v1.232h3.948v1.792h-3.948v12.544h-2.94V274.2a8.608,8.608,0,0,1,.784-4.2,5.1,5.1,0,0,1,4.816-2.577,11.053,11.053,0,0,1,3.3.56Z"/><path d="M206.325,289.716a2.8,2.8,0,0,1-2.212-.9,3.96,3.96,0,0,1-.756-2.6V270.927l2.913-.755v4.843h3.947v1.792H206.27v9.268c0,1.064.559,1.456,1.343,1.456a8.4,8.4,0,0,0,2.828-.867l.617,1.483A9.814,9.814,0,0,1,206.325,289.716Z"/><path d="M222.686,289.351v-8.008a6.3,6.3,0,0,0-.645-3.3,2.864,2.864,0,0,0-2.632-1.429,5.63,5.63,0,0,0-3.08.924v11.816H213.39V267.876h2.939v7.531a8.534,8.534,0,0,1,3.528-.783,5.534,5.534,0,0,1,4.817,2.464,7.211,7.211,0,0,1,.979,4v8.26Z"/><path d="M235.8,289.855c-4.145,0-7.113-3.3-7.113-7.588,0-4.34,3.025-7.616,7.029-7.616a5.84,5.84,0,0,1,6.159,6.16,10.308,10.308,0,0,1-.084,1.233l-10.023.252c.139,3.387,2.1,5.628,4.731,5.628a7.6,7.6,0,0,0,4.089-1.429l.84,1.484A9.155,9.155,0,0,1,235.8,289.855ZM238.685,280c0-2.325-1.344-3.584-2.884-3.584-1.989,0-3.613,1.567-3.893,4.172l6.777-.281Z"/><path d="M252.964,275.015a3.2,3.2,0,0,0,1.54.42,4.2,4.2,0,0,0,1.344-.307,8.12,8.12,0,0,1,2.828-.5,6.281,6.281,0,0,1,4.928,2.3,8.589,8.589,0,0,1,1.875,5.376c0,3.863-2.239,7.587-6.691,7.587a8.63,8.63,0,0,1-3.473-.784v7.588h-2.939V275.015Zm5.376,13.02c2.519,0,4.059-2.155,4.059-5.907,0-3.025-1.54-5.628-4.311-5.628a5.069,5.069,0,0,0-2.773.867v9.8A6.278,6.278,0,0,0,258.34,288.035Z"/><path d="M280.107,289.351a3.259,3.259,0,0,0-1.428-.42,4.156,4.156,0,0,0-1.4.281,9.136,9.136,0,0,1-2.94.559,5.537,5.537,0,0,1-4.816-2.3,7.443,7.443,0,0,1-.98-4.088v-8.372h2.94v8.008a6.486,6.486,0,0,0,.644,3.332,2.962,2.962,0,0,0,2.66,1.428,5.8,5.8,0,0,0,2.94-.867v-11.9H280.7v14.336Z"/><path d="M287.708,275.435a8.149,8.149,0,0,1,3.389-.784,6.219,6.219,0,0,1,5.124,2.38,8.855,8.855,0,0,1,1.624,5.236,8.508,8.508,0,0,1-1.177,4.649,6.358,6.358,0,0,1-5.544,2.939,8.44,8.44,0,0,1-3-.588,4.274,4.274,0,0,0-1.371-.336,2.384,2.384,0,0,0-1.372.42h-.616V267.876h2.939Zm2.8,12.516a3.576,3.576,0,0,0,3-1.428,6.518,6.518,0,0,0,1.261-4.143c0-3.752-1.54-5.88-4.061-5.88a6.579,6.579,0,0,0-3,.811v9.744A5.146,5.146,0,0,0,290.509,287.951Z"/><path d="M301.308,289.351V267.876h2.94v21.475Z"/><path d="M310.007,272.412a1.86,1.86,0,0,1-1.82-1.849,1.822,1.822,0,0,1,1.82-1.847,1.845,1.845,0,0,1,1.848,1.847A1.883,1.883,0,0,1,310.007,272.412Zm-1.455,16.939V275.015h2.939v14.336Z"/><path d="M321.93,289.827a7.04,7.04,0,0,1-7.168-7.363c0-4.565,3.024-7.813,7.2-7.813a9.837,9.837,0,0,1,4.983,1.456l-1.175,2.437c-1.233-1.261-2.409-2.1-3.892-2.1-1.876,0-3.977,1.96-3.977,5.292,0,3.977,2.269,6.189,4.676,6.189a6.99,6.99,0,0,0,3.893-1.4l.811,1.456A8.363,8.363,0,0,1,321.93,289.827Z"/><path d="M348.669,289.351a2.764,2.764,0,0,0-1.372-.42,4.66,4.66,0,0,0-1.372.336,7.546,7.546,0,0,1-2.827.616,6.363,6.363,0,0,1-5.46-2.8,8.512,8.512,0,0,1-1.288-4.677,7.545,7.545,0,0,1,3-6.356,6.7,6.7,0,0,1,4.256-1.4,9.546,9.546,0,0,1,3.416.645l2.239-.533v14.588Zm-2.38-12.124a4.884,4.884,0,0,0-2.492-.7c-2.239,0-4.34,1.792-4.34,5.685,0,2.267.588,3.947,1.792,4.927a3.394,3.394,0,0,0,2.24.84,4.547,4.547,0,0,0,2.8-1.063Z"/><path d="M362.489,289.351v-8.008a6.367,6.367,0,0,0-.643-3.3,2.836,2.836,0,0,0-2.632-1.429,5.9,5.9,0,0,0-2.968.84v11.9h-2.94V275.015h.588a3.148,3.148,0,0,0,1.427.42,4.317,4.317,0,0,0,1.429-.28,9.012,9.012,0,0,1,2.911-.531,5.4,5.4,0,0,1,4.788,2.267,7.047,7.047,0,0,1,1.009,4.088v8.372Z"/><path d="M381.022,289.351a2.944,2.944,0,0,0-1.4-.42,4.051,4.051,0,0,0-1.4.336,8.073,8.073,0,0,1-2.912.588,6.352,6.352,0,0,1-5.6-2.939,8.115,8.115,0,0,1-1.2-4.509,7.549,7.549,0,0,1,2.968-6.327,7.346,7.346,0,0,1,4.452-1.429,7.262,7.262,0,0,1,2.687.448v-7.223h3v21.475Zm-2.379-12.46a7.231,7.231,0,0,0-2.185-.42c-2.52,0-4.844,1.821-4.844,5.852,0,2.6,1.26,5.656,4.34,5.656a4.428,4.428,0,0,0,2.66-.924Z"/><path d="M19.885,306.011a1.859,1.859,0,0,1-1.82-1.848,1.823,1.823,0,0,1,1.82-1.848,1.846,1.846,0,0,1,1.848,1.848A1.882,1.882,0,0,1,19.885,306.011Zm-1.455,16.94V308.615h2.939v14.336Z"/><path d="M34.723,322.951v-8.008a6.371,6.371,0,0,0-.645-3.3,2.835,2.835,0,0,0-2.632-1.428,5.9,5.9,0,0,0-2.967.839v11.9H25.538V308.615h.589a3.152,3.152,0,0,0,1.428.42,4.3,4.3,0,0,0,1.427-.28,9.011,9.011,0,0,1,2.913-.532,5.4,5.4,0,0,1,4.788,2.268,7.062,7.062,0,0,1,1.007,4.088v8.372Z"/><path d="M47.4,322.951H45.076l-5.964-14.336h3.277l4.451,11.032c.5-1.148,2.044-5.236,2.3-5.992a33.534,33.534,0,0,0,1.288-5.04h2.969Z"/><path d="M61.255,323.455c-4.145,0-7.112-3.3-7.112-7.588,0-4.34,3.024-7.616,7.028-7.616a5.84,5.84,0,0,1,6.159,6.16,10.279,10.279,0,0,1-.084,1.232l-10.023.252c.139,3.388,2.1,5.628,4.731,5.628a7.6,7.6,0,0,0,4.089-1.429l.84,1.485A9.152,9.152,0,0,1,61.255,323.455Zm2.884-9.856c0-2.324-1.344-3.584-2.884-3.584-1.988,0-3.612,1.568-3.893,4.172l6.777-.28Z"/><path d="M79.093,312.115a5.513,5.513,0,0,0-3.864-2.072c-1.428,0-2.492.784-2.492,1.876,0,1.344,1.653,1.848,3.388,2.52,2.24.9,4.844,1.9,4.844,4.48,0,2.883-2.8,4.564-5.684,4.564a12.1,12.1,0,0,1-5.74-1.708l1.2-2.324c1.12,1.064,2.912,2.267,4.508,2.267,1.624,0,2.772-.839,2.772-1.931,0-1.372-1.792-2.016-3.584-2.744-2.184-.9-4.648-1.988-4.648-4.48,0-2.66,2.772-4.284,5.6-4.284a10.215,10.215,0,0,1,4.957,1.4Z"/><path d="M87.1,323.315a2.8,2.8,0,0,1-2.212-.9,3.956,3.956,0,0,1-.756-2.6V304.527l2.912-.756v4.844h3.947v1.792H87.04v9.267c0,1.065.56,1.457,1.344,1.457a8.386,8.386,0,0,0,2.828-.868l.616,1.484A9.809,9.809,0,0,1,87.1,323.315Z"/><path d="M100.006,323.483c-3.947,0-7.111-3.164-7.111-7.616,0-4.424,3.164-7.588,7.111-7.588,3.892,0,7.056,3.164,7.056,7.588C107.062,320.319,103.927,323.483,100.006,323.483Zm0-13.44c-2.268,0-4,2.38-4,5.824,0,3.36,1.681,5.851,4,5.851,2.268,0,3.976-2.463,3.976-5.851C103.982,312.451,102.3,310.043,100.006,310.043Z"/><path d="M118.438,310.966a6.31,6.31,0,0,0-2.576-.643,5.272,5.272,0,0,0-2.632.756v11.872h-2.94V308.615h.589a2.82,2.82,0,0,0,1.428.42,5.205,5.205,0,0,0,1.483-.308,8.316,8.316,0,0,1,5.544-.056Z"/><path d="M129.859,312.115A5.511,5.511,0,0,0,126,310.043c-1.428,0-2.492.784-2.492,1.876,0,1.344,1.652,1.848,3.389,2.52,2.239.9,4.843,1.9,4.843,4.48,0,2.883-2.8,4.564-5.683,4.564a12.1,12.1,0,0,1-5.74-1.708l1.2-2.324c1.12,1.064,2.912,2.267,4.507,2.267,1.624,0,2.772-.839,2.772-1.931,0-1.372-1.792-2.016-3.584-2.744-2.184-.9-4.648-1.988-4.648-4.48,0-2.66,2.772-4.284,5.6-4.284a10.2,10.2,0,0,1,4.956,1.4Z"/><path d="M145.118,309.035a8.134,8.134,0,0,1,3.389-.784,6.219,6.219,0,0,1,5.124,2.38,8.853,8.853,0,0,1,1.624,5.236,8.494,8.494,0,0,1-1.177,4.648,6.356,6.356,0,0,1-5.544,2.94,8.463,8.463,0,0,1-3-.588,4.274,4.274,0,0,0-1.371-.336,2.378,2.378,0,0,0-1.372.42h-.616V301.475h2.939Zm2.8,12.515a3.578,3.578,0,0,0,2.995-1.427,6.521,6.521,0,0,0,1.261-4.144c0-3.752-1.54-5.88-4.061-5.88a6.571,6.571,0,0,0-3,.812v9.744A5.154,5.154,0,0,0,147.919,321.55Z"/><path d="M169.932,322.951a3.246,3.246,0,0,0-1.428-.42,4.149,4.149,0,0,0-1.4.28,9.111,9.111,0,0,1-2.94.56,5.534,5.534,0,0,1-4.816-2.3,7.434,7.434,0,0,1-.98-4.088v-8.372h2.94v8.008a6.49,6.49,0,0,0,.644,3.332,2.963,2.963,0,0,0,2.659,1.428,5.788,5.788,0,0,0,2.941-.868v-11.9h2.968v14.336Z"/><path d="M180.988,322.9a29.976,29.976,0,0,1-4.283,7.615l-2.268-1.763a14.808,14.808,0,0,0,4.48-5.8l-6.133-14.336h3.248l4.452,10.92c.477-1.149,1.989-5.18,2.241-5.936a29.42,29.42,0,0,0,1.232-4.984H186.9Z"/><path d="M207.588,322.951a2.764,2.764,0,0,0-1.372-.42,4.66,4.66,0,0,0-1.372.336,7.566,7.566,0,0,1-2.827.616,6.361,6.361,0,0,1-5.46-2.8,8.5,8.5,0,0,1-1.288-4.676,7.543,7.543,0,0,1,3-6.356,6.7,6.7,0,0,1,4.256-1.4,9.571,9.571,0,0,1,3.416.644l2.239-.532v14.588Zm-2.38-12.124a4.887,4.887,0,0,0-2.492-.7c-2.239,0-4.34,1.792-4.34,5.684,0,2.268.588,3.947,1.792,4.928a3.394,3.394,0,0,0,2.24.84,4.541,4.541,0,0,0,2.8-1.064Z"/><path d="M221.409,322.951v-8.008a6.372,6.372,0,0,0-.644-3.3,2.836,2.836,0,0,0-2.632-1.428,5.9,5.9,0,0,0-2.968.839v11.9h-2.94V308.615h.588a3.152,3.152,0,0,0,1.428.42,4.311,4.311,0,0,0,1.428-.28,9.01,9.01,0,0,1,2.912-.532,5.4,5.4,0,0,1,4.788,2.268,7.054,7.054,0,0,1,1.008,4.088v8.372Z"/><path d="M239.941,322.951a2.938,2.938,0,0,0-1.4-.42,4.056,4.056,0,0,0-1.4.336,8.1,8.1,0,0,1-2.913.588,6.352,6.352,0,0,1-5.6-2.94,8.117,8.117,0,0,1-1.2-4.508,7.55,7.55,0,0,1,2.968-6.328,7.354,7.354,0,0,1,4.452-1.428,7.272,7.272,0,0,1,2.688.448v-7.224h3v21.476Zm-2.379-12.46a7.2,7.2,0,0,0-2.184-.42c-2.521,0-4.844,1.82-4.844,5.852,0,2.6,1.26,5.656,4.34,5.656a4.434,4.434,0,0,0,2.66-.924Z"/><path d="M260.325,312.115a5.513,5.513,0,0,0-3.864-2.072c-1.428,0-2.492.784-2.492,1.876,0,1.344,1.652,1.848,3.388,2.52,2.24.9,4.844,1.9,4.844,4.48,0,2.883-2.8,4.564-5.683,4.564a12.1,12.1,0,0,1-5.741-1.708l1.2-2.324c1.121,1.064,2.913,2.267,4.508,2.267,1.624,0,2.772-.839,2.772-1.931,0-1.372-1.792-2.016-3.584-2.744-2.184-.9-4.648-1.988-4.648-4.48,0-2.66,2.772-4.284,5.6-4.284a10.208,10.208,0,0,1,4.956,1.4Z"/><path d="M271.572,323.455c-4.143,0-7.112-3.3-7.112-7.588,0-4.34,3.024-7.616,7.028-7.616a5.841,5.841,0,0,1,6.16,6.16,10.491,10.491,0,0,1-.084,1.232l-10.024.252c.141,3.388,2.1,5.628,4.732,5.628a7.591,7.591,0,0,0,4.088-1.429l.84,1.485A9.152,9.152,0,0,1,271.572,323.455Zm2.884-9.856c0-2.324-1.344-3.584-2.884-3.584-1.988,0-3.612,1.568-3.891,4.172l6.775-.28Z"/><path d="M281.067,322.951V301.475h2.94v21.476Z"/><path d="M288.28,322.951V301.475h2.94v21.476Z"/><path d="M311.239,312.115a5.512,5.512,0,0,0-3.863-2.072c-1.429,0-2.492.784-2.492,1.876,0,1.344,1.652,1.848,3.387,2.52,2.241.9,4.844,1.9,4.844,4.48,0,2.883-2.8,4.564-5.683,4.564a12.107,12.107,0,0,1-5.741-1.708l1.205-2.324c1.12,1.064,2.912,2.267,4.507,2.267,1.624,0,2.773-.839,2.773-1.931,0-1.372-1.792-2.016-3.584-2.744-2.185-.9-4.649-1.988-4.649-4.48,0-2.66,2.773-4.284,5.6-4.284a10.211,10.211,0,0,1,4.956,1.4Z"/><path d="M319.242,323.315a2.8,2.8,0,0,1-2.213-.9,3.962,3.962,0,0,1-.756-2.6V304.527l2.913-.756v4.844h3.948v1.792h-3.948v9.267c0,1.065.56,1.457,1.343,1.457a8.379,8.379,0,0,0,2.828-.868l.617,1.484A9.805,9.805,0,0,1,319.242,323.315Z"/><path d="M332.152,323.483c-3.948,0-7.112-3.164-7.112-7.616,0-4.424,3.164-7.588,7.112-7.588,3.892,0,7.056,3.164,7.056,7.588C339.208,320.319,336.072,323.483,332.152,323.483Zm0-13.44c-2.267,0-4,2.38-4,5.824,0,3.36,1.68,5.851,4,5.851,2.268,0,3.976-2.463,3.976-5.851C336.128,312.451,334.448,310.043,332.152,310.043Z"/><path d="M348.775,323.426a7.041,7.041,0,0,1-7.168-7.363c0-4.564,3.025-7.812,7.2-7.812a9.841,9.841,0,0,1,4.984,1.456l-1.176,2.436c-1.232-1.26-2.408-2.1-3.892-2.1-1.876,0-3.976,1.96-3.976,5.292,0,3.976,2.268,6.188,4.676,6.188a6.985,6.985,0,0,0,3.892-1.4l.812,1.456A8.368,8.368,0,0,1,348.775,323.426Z"/><path d="M369.814,322.951h-3.723l-6.328-7.112v7.112h-2.941V301.475h2.941v13.748c3.248-3.22,4.9-5.18,5.46-6.608h3.723l-6.3,6.3Z"/><path d="M380.6,312.115a5.513,5.513,0,0,0-3.864-2.072c-1.428,0-2.492.784-2.492,1.876,0,1.344,1.652,1.848,3.388,2.52,2.24.9,4.844,1.9,4.844,4.48,0,2.883-2.8,4.564-5.684,4.564a12.1,12.1,0,0,1-5.74-1.708l1.2-2.324c1.12,1.064,2.912,2.267,4.508,2.267,1.624,0,2.772-.839,2.772-1.931,0-1.372-1.792-2.016-3.584-2.744-2.184-.9-4.648-1.988-4.648-4.48,0-2.66,2.772-4.284,5.6-4.284a10.208,10.208,0,0,1,4.956,1.4Z"/><path d="M136.166,357.084c-3.947,0-7.111-3.164-7.111-7.617,0-4.423,3.164-7.587,7.111-7.587,3.893,0,7.057,3.164,7.057,7.587C143.223,353.92,140.087,357.084,136.166,357.084Zm0-13.441c-2.268,0-4,2.38-4,5.824,0,3.361,1.681,5.852,4,5.852,2.269,0,3.977-2.464,3.977-5.852C140.143,346.051,138.463,343.643,136.166,343.643Z"/><path d="M155.635,356.551v-8.007a6.366,6.366,0,0,0-.645-3.3,2.834,2.834,0,0,0-2.632-1.429,5.9,5.9,0,0,0-2.967.84v11.9H146.45V342.216h.589a3.161,3.161,0,0,0,1.428.419,4.311,4.311,0,0,0,1.428-.28,9.029,9.029,0,0,1,2.912-.531,5.4,5.4,0,0,1,4.788,2.267,7.056,7.056,0,0,1,1.008,4.088v8.372Z"/><path d="M172.6,356.916a2.8,2.8,0,0,1-2.213-.9,3.953,3.953,0,0,1-.756-2.6V338.128l2.912-.756v4.844h3.948v1.792h-3.948v9.267c0,1.065.56,1.456,1.344,1.456a8.386,8.386,0,0,0,2.828-.868l.616,1.484A9.792,9.792,0,0,1,172.6,356.916Z"/><path d="M188.962,356.551v-8.007a6.313,6.313,0,0,0-.644-3.3,2.863,2.863,0,0,0-2.631-1.429,5.629,5.629,0,0,0-3.081.924v11.816h-2.94V335.076h2.94v7.531a8.531,8.531,0,0,1,3.529-.783,5.529,5.529,0,0,1,4.815,2.464,7.2,7.2,0,0,1,.981,4v8.259Z"/><path d="M202.077,357.055c-4.143,0-7.112-3.3-7.112-7.588,0-4.339,3.024-7.616,7.028-7.616a5.841,5.841,0,0,1,6.16,6.16,10.507,10.507,0,0,1-.084,1.233l-10.024.252c.141,3.387,2.1,5.628,4.732,5.628a7.593,7.593,0,0,0,4.088-1.429l.84,1.484A9.152,9.152,0,0,1,202.077,357.055Zm2.884-9.855c0-2.324-1.344-3.584-2.884-3.584-1.988,0-3.612,1.567-3.891,4.172l6.775-.28Z"/><path d="M227.137,345.716a5.51,5.51,0,0,0-3.865-2.073c-1.427,0-2.492.784-2.492,1.876,0,1.345,1.653,1.849,3.389,2.521,2.239.895,4.844,1.9,4.844,4.479,0,2.884-2.8,4.565-5.684,4.565a12.111,12.111,0,0,1-5.74-1.708l1.2-2.325c1.12,1.065,2.912,2.268,4.508,2.268,1.624,0,2.771-.84,2.771-1.932,0-1.372-1.792-2.015-3.584-2.744-2.183-.895-4.647-1.987-4.647-4.479,0-2.66,2.771-4.284,5.6-4.284a10.19,10.19,0,0,1,4.956,1.4Z"/><path d="M235.14,356.916a2.8,2.8,0,0,1-2.213-.9,3.953,3.953,0,0,1-.756-2.6V338.128l2.912-.756v4.844h3.948v1.792h-3.948v9.267c0,1.065.561,1.456,1.344,1.456a8.386,8.386,0,0,0,2.828-.868l.616,1.484A9.792,9.792,0,0,1,235.14,356.916Z"/><path d="M248.049,357.084c-3.947,0-7.112-3.164-7.112-7.617,0-4.423,3.165-7.587,7.112-7.587,3.892,0,7.056,3.164,7.056,7.587C255.105,353.92,251.97,357.084,248.049,357.084Zm0-13.441c-2.268,0-4,2.38-4,5.824,0,3.361,1.681,5.852,4,5.852,2.268,0,3.976-2.464,3.976-5.852C252.025,346.051,250.346,343.643,248.049,343.643Z"/><path d="M264.673,357.027a7.04,7.04,0,0,1-7.168-7.363c0-4.565,3.024-7.813,7.2-7.813a9.844,9.844,0,0,1,4.984,1.456l-1.176,2.437c-1.233-1.261-2.408-2.1-3.892-2.1-1.876,0-3.976,1.96-3.976,5.292,0,3.977,2.268,6.189,4.675,6.189a6.988,6.988,0,0,0,3.893-1.4l.812,1.456A8.369,8.369,0,0,1,264.673,357.027Z"/><path d="M285.712,356.551h-3.725l-6.328-7.112v7.112H272.72V335.076h2.939v13.748c3.248-3.221,4.9-5.181,5.46-6.608h3.725l-6.3,6.3Z"/><path d="M311.415,356.551V348.4a6.768,6.768,0,0,0-.531-3.079,2.86,2.86,0,0,0-2.521-1.484,4.9,4.9,0,0,0-2.828.952,8.679,8.679,0,0,1,.336,3.164v8.595h-2.884v-9.267a4.636,4.636,0,0,0-.307-2.072,2.535,2.535,0,0,0-2.353-1.4,5.536,5.536,0,0,0-2.912.924v11.816H294.5V342.216h.421a3.256,3.256,0,0,0,1.483.419c1.2,0,2.269-.811,4.313-.811a5.2,5.2,0,0,1,3.752,1.344,8.373,8.373,0,0,1,4.424-1.344,5.036,5.036,0,0,1,4.591,2.407,7.7,7.7,0,0,1,.868,3.948v8.372Z"/><path d="M329.738,356.551a2.762,2.762,0,0,0-1.372-.419,4.648,4.648,0,0,0-1.372.335,7.546,7.546,0,0,1-2.828.617,6.366,6.366,0,0,1-5.46-2.8,8.512,8.512,0,0,1-1.288-4.677,7.544,7.544,0,0,1,3-6.355,6.7,6.7,0,0,1,4.256-1.4,9.563,9.563,0,0,1,3.416.645l2.24-.532v14.587Zm-2.38-12.124a4.9,4.9,0,0,0-2.492-.7c-2.24,0-4.34,1.792-4.34,5.685,0,2.267.588,3.947,1.792,4.928a3.4,3.4,0,0,0,2.24.839,4.547,4.547,0,0,0,2.8-1.063Z"/><path d="M342.522,344.567a6.306,6.306,0,0,0-2.575-.643,5.267,5.267,0,0,0-2.632.755v11.872h-2.94V342.216h.588a2.83,2.83,0,0,0,1.428.419,5.2,5.2,0,0,0,1.484-.307,8.324,8.324,0,0,1,5.544-.057Z"/><path d="M358.553,356.551h-3.724l-6.328-7.112v7.112h-2.94V335.076h2.94v13.748c3.248-3.221,4.9-5.181,5.46-6.608h3.724l-6.3,6.3Z"/><path d="M365.8,357.055c-4.144,0-7.113-3.3-7.113-7.588,0-4.339,3.025-7.616,7.029-7.616a5.841,5.841,0,0,1,6.16,6.16,10.507,10.507,0,0,1-.084,1.233l-10.024.252c.14,3.387,2.1,5.628,4.732,5.628a7.6,7.6,0,0,0,4.088-1.429l.84,1.484A9.155,9.155,0,0,1,365.8,357.055Zm2.884-9.855c0-2.324-1.344-3.584-2.884-3.584-1.989,0-3.613,1.567-3.892,4.172l6.776-.28Z"/><path d="M378.136,356.916a2.8,2.8,0,0,1-2.212-.9,3.953,3.953,0,0,1-.756-2.6V338.128l2.912-.756v4.844h3.947v1.792H378.08v9.267c0,1.065.56,1.456,1.344,1.456a8.386,8.386,0,0,0,2.828-.868l.616,1.484A9.8,9.8,0,0,1,378.136,356.916Z"/><path d="M387.182,356.943a1.859,1.859,0,0,1-1.82-1.848,1.834,1.834,0,1,1,1.82,1.848Z"/><path d="M1097.718,283a6.414,6.414,0,0,0-4.7-2.576c-1.96,0-3.416,1.232-3.416,2.94,0,2.044,2.212,2.94,4.4,3.836,2.688,1.119,5.656,2.464,5.656,5.684,0,3.723-3.276,5.992-6.692,5.992a13.039,13.039,0,0,1-6.748-2.156l1.26-2.6c1.316,1.4,3.5,2.884,5.572,2.884,2.128,0,3.7-1.317,3.7-3.08,0-2.073-2.324-3.08-4.7-4.116-2.6-1.148-5.515-2.577-5.515-5.657,0-3.443,3.387-5.6,6.691-5.6a11.327,11.327,0,0,1,5.768,1.792Z"/><path d="M1105.782,298.7a2.8,2.8,0,0,1-2.213-.9,3.957,3.957,0,0,1-.756-2.6V279.915l2.913-.756V284h3.948V285.8h-3.948v9.267c0,1.065.56,1.456,1.343,1.456a8.4,8.4,0,0,0,2.828-.867l.617,1.483A9.8,9.8,0,0,1,1105.782,298.7Z"/><path d="M1118.692,298.871c-3.948,0-7.112-3.164-7.112-7.616,0-4.424,3.164-7.588,7.112-7.588,3.892,0,7.056,3.164,7.056,7.588C1125.748,295.707,1122.612,298.871,1118.692,298.871Zm0-13.441c-2.267,0-4,2.38-4,5.825,0,3.36,1.68,5.851,4,5.851,2.268,0,3.976-2.464,3.976-5.851C1122.668,287.839,1120.988,285.43,1118.692,285.43Z"/><path d="M1135.315,298.814a7.041,7.041,0,0,1-7.168-7.363c0-4.565,3.025-7.813,7.2-7.813a9.841,9.841,0,0,1,4.984,1.456l-1.176,2.437c-1.232-1.261-2.408-2.1-3.892-2.1-1.876,0-3.976,1.96-3.976,5.292,0,3.977,2.268,6.189,4.676,6.189a6.988,6.988,0,0,0,3.892-1.4l.812,1.456A8.367,8.367,0,0,1,1135.315,298.814Z"/><path d="M1156.354,298.339h-3.723l-6.328-7.113v7.113h-2.941V276.863h2.941v13.748c3.248-3.221,4.9-5.181,5.46-6.608h3.723l-6.3,6.3Z"/><path d="M1165.79,284a3.21,3.21,0,0,0,1.54.42,4.208,4.208,0,0,0,1.344-.308,8.125,8.125,0,0,1,2.828-.5,6.284,6.284,0,0,1,4.928,2.3,8.59,8.59,0,0,1,1.876,5.376c0,3.863-2.24,7.588-6.692,7.588a8.638,8.638,0,0,1-3.472-.784v7.587h-2.94V284Zm5.376,13.019c2.52,0,4.06-2.155,4.06-5.907,0-3.024-1.54-5.628-4.312-5.628a5.065,5.065,0,0,0-2.772.867v9.8A6.263,6.263,0,0,0,1171.166,297.022Z"/><path d="M1189.725,286.354a6.318,6.318,0,0,0-2.577-.643,5.264,5.264,0,0,0-2.631.755v11.873h-2.941V284h.589a2.83,2.83,0,0,0,1.428.42,5.2,5.2,0,0,0,1.483-.308,8.324,8.324,0,0,1,5.544-.057Z"/><path d="M1194.313,281.4a1.86,1.86,0,0,1-1.82-1.849,1.822,1.822,0,0,1,1.82-1.847,1.845,1.845,0,0,1,1.848,1.847A1.883,1.883,0,0,1,1194.313,281.4Zm-1.456,16.94V284h2.941v14.336Z"/><path d="M1206.235,298.814a7.041,7.041,0,0,1-7.168-7.363c0-4.565,3.025-7.813,7.2-7.813a9.841,9.841,0,0,1,4.984,1.456l-1.176,2.437c-1.232-1.261-2.408-2.1-3.892-2.1-1.876,0-3.976,1.96-3.976,5.292,0,3.977,2.268,6.189,4.676,6.189a6.983,6.983,0,0,0,3.891-1.4l.813,1.456A8.37,8.37,0,0,1,1206.235,298.814Z"/><path d="M1220.222,298.842c-4.145,0-7.113-3.3-7.113-7.587,0-4.34,3.025-7.617,7.029-7.617a5.841,5.841,0,0,1,6.159,6.161,10.293,10.293,0,0,1-.084,1.232l-10.024.252c.14,3.388,2.1,5.628,4.732,5.628a7.6,7.6,0,0,0,4.089-1.429l.84,1.484A9.155,9.155,0,0,1,1220.222,298.842Zm2.883-9.855c0-2.324-1.343-3.584-2.883-3.584-1.989,0-3.613,1.567-3.893,4.172l6.776-.28Z"/><path d="M1238.06,287.5a5.514,5.514,0,0,0-3.864-2.073c-1.428,0-2.492.785-2.492,1.876,0,1.345,1.652,1.849,3.388,2.521,2.24.895,4.844,1.9,4.844,4.479,0,2.884-2.8,4.565-5.684,4.565a12.115,12.115,0,0,1-5.74-1.708l1.2-2.324c1.12,1.064,2.912,2.267,4.508,2.267,1.624,0,2.772-.84,2.772-1.932,0-1.372-1.792-2.015-3.584-2.744-2.184-.895-4.648-1.987-4.648-4.479,0-2.66,2.772-4.284,5.6-4.284a10.208,10.208,0,0,1,4.956,1.4Z"/><path d="M1256.6,298.814a7.04,7.04,0,0,1-7.168-7.363c0-4.565,3.024-7.813,7.2-7.813a9.838,9.838,0,0,1,4.984,1.456l-1.175,2.437c-1.233-1.261-2.409-2.1-3.893-2.1-1.876,0-3.976,1.96-3.976,5.292,0,3.977,2.268,6.189,4.676,6.189a6.988,6.988,0,0,0,3.892-1.4l.812,1.456A8.366,8.366,0,0,1,1256.6,298.814Z"/><path d="M1275.8,298.339a2.754,2.754,0,0,0-1.372-.42,4.652,4.652,0,0,0-1.372.336,7.567,7.567,0,0,1-2.828.616,6.366,6.366,0,0,1-5.46-2.8,8.509,8.509,0,0,1-1.288-4.677,7.545,7.545,0,0,1,3-6.355,6.7,6.7,0,0,1,4.256-1.4,9.563,9.563,0,0,1,3.416.645l2.24-.532v14.588Zm-2.38-12.124a4.887,4.887,0,0,0-2.492-.7c-2.24,0-4.34,1.792-4.34,5.685,0,2.267.588,3.947,1.792,4.928a3.393,3.393,0,0,0,2.24.839,4.547,4.547,0,0,0,2.8-1.063Z"/><path d="M1289.624,298.339v-8.008a6.356,6.356,0,0,0-.645-3.3,2.834,2.834,0,0,0-2.631-1.429,5.9,5.9,0,0,0-2.968.84v11.9h-2.941V284h.589a3.164,3.164,0,0,0,1.428.42,4.313,4.313,0,0,0,1.428-.281,9.035,9.035,0,0,1,2.912-.531,5.4,5.4,0,0,1,4.788,2.268,7.051,7.051,0,0,1,1.008,4.087v8.373Z"/><path d="M1315.02,298.339a2.755,2.755,0,0,0-1.373-.42,4.66,4.66,0,0,0-1.372.336,7.567,7.567,0,0,1-2.828.616,6.366,6.366,0,0,1-5.46-2.8,8.509,8.509,0,0,1-1.288-4.677,7.548,7.548,0,0,1,3-6.355,6.7,6.7,0,0,1,4.256-1.4,9.563,9.563,0,0,1,3.416.645l2.24-.532v14.588Zm-2.38-12.124a4.891,4.891,0,0,0-2.493-.7c-2.24,0-4.339,1.792-4.339,5.685,0,2.267.588,3.947,1.792,4.928a3.389,3.389,0,0,0,2.239.839,4.55,4.55,0,0,0,2.8-1.063Z"/><path d="M1319.773,298.339V276.863h2.941v21.476Z"/><path d="M1335.447,287.5a5.514,5.514,0,0,0-3.863-2.073c-1.429,0-2.492.785-2.492,1.876,0,1.345,1.652,1.849,3.387,2.521,2.241.895,4.844,1.9,4.844,4.479,0,2.884-2.8,4.565-5.683,4.565a12.119,12.119,0,0,1-5.741-1.708l1.205-2.324c1.12,1.064,2.912,2.267,4.507,2.267,1.624,0,2.773-.84,2.773-1.932,0-1.372-1.792-2.015-3.584-2.744-2.185-.895-4.649-1.987-4.649-4.479,0-2.66,2.773-4.284,5.6-4.284a10.211,10.211,0,0,1,4.956,1.4Z"/><path d="M1346.681,298.871c-3.948,0-7.112-3.164-7.112-7.616,0-4.424,3.164-7.588,7.112-7.588,3.892,0,7.056,3.164,7.056,7.588C1353.737,295.707,1350.6,298.871,1346.681,298.871Zm0-13.441c-2.268,0-4,2.38-4,5.825,0,3.36,1.68,5.851,4,5.851,2.268,0,3.976-2.464,3.976-5.851C1350.657,287.839,1348.978,285.43,1346.681,285.43Z"/><path d="M1095.394,312.9a6.927,6.927,0,0,0-2.912-1.008c-1.456,0-2.24,1.26-2.24,4.48V317.6h3.948v1.792h-3.948v12.544h-2.94V316.791a8.608,8.608,0,0,1,.784-4.2,5.1,5.1,0,0,1,4.816-2.577,11.053,11.053,0,0,1,3.3.56Z"/><path d="M1107.392,331.938a2.764,2.764,0,0,0-1.372-.42,4.658,4.658,0,0,0-1.373.336,7.567,7.567,0,0,1-2.828.616,6.365,6.365,0,0,1-5.46-2.8,8.512,8.512,0,0,1-1.288-4.677,7.55,7.55,0,0,1,3-6.356,6.709,6.709,0,0,1,4.256-1.4,9.541,9.541,0,0,1,3.416.645l2.24-.533v14.588Zm-2.38-12.124a4.89,4.89,0,0,0-2.492-.7c-2.241,0-4.34,1.792-4.34,5.685,0,2.267.588,3.947,1.792,4.927a3.391,3.391,0,0,0,2.239.84,4.55,4.55,0,0,0,2.8-1.063Z"/><path d="M1112.146,331.938V310.463h2.94v21.475Z"/><path d="M1119.359,331.938V310.463h2.94v21.475Z"/><path d="M1126.445,336.11l-.756-.756a4.931,4.931,0,0,0,1.792-3.192,1.637,1.637,0,0,0-1.483-1.568l-.112-.252a1.938,1.938,0,0,1,1.931-1.764,2.1,2.1,0,0,1,2.044,2.156C1129.861,332.526,1128.042,334.711,1126.445,336.11Z"/><path d="M1146.689,332.414a7.041,7.041,0,0,1-7.168-7.364c0-4.564,3.025-7.812,7.2-7.812a9.84,9.84,0,0,1,4.983,1.456l-1.176,2.437c-1.232-1.261-2.408-2.1-3.891-2.1-1.876,0-3.977,1.96-3.977,5.292,0,3.977,2.269,6.188,4.676,6.188a6.988,6.988,0,0,0,3.893-1.4l.811,1.456A8.364,8.364,0,0,1,1146.689,332.414Z"/><path d="M1165.9,331.938a2.758,2.758,0,0,0-1.372-.42,4.66,4.66,0,0,0-1.372.336,7.556,7.556,0,0,1-2.827.616,6.364,6.364,0,0,1-5.46-2.8,8.512,8.512,0,0,1-1.288-4.677,7.547,7.547,0,0,1,3-6.356,6.7,6.7,0,0,1,4.256-1.4,9.541,9.541,0,0,1,3.416.645l2.239-.533v14.588Zm-2.379-12.124a4.888,4.888,0,0,0-2.493-.7c-2.239,0-4.339,1.792-4.339,5.685,0,2.267.587,3.947,1.792,4.927a3.39,3.39,0,0,0,2.24.84,4.547,4.547,0,0,0,2.8-1.063Z"/><path d="M1181.952,331.938a3.259,3.259,0,0,0-1.428-.42,4.161,4.161,0,0,0-1.4.281,9.135,9.135,0,0,1-2.939.559,5.537,5.537,0,0,1-4.817-2.3,7.443,7.443,0,0,1-.979-4.088V317.6h2.939v8.008a6.474,6.474,0,0,0,.645,3.332,2.96,2.96,0,0,0,2.659,1.428,5.794,5.794,0,0,0,2.94-.867V317.6h2.968v14.336Z"/><path d="M1195.176,321.1a5.513,5.513,0,0,0-3.864-2.072c-1.428,0-2.492.784-2.492,1.876,0,1.345,1.653,1.849,3.388,2.52,2.24.9,4.844,1.9,4.844,4.48,0,2.884-2.8,4.564-5.684,4.564a12.1,12.1,0,0,1-5.74-1.708l1.2-2.324c1.12,1.065,2.912,2.268,4.508,2.268,1.624,0,2.772-.84,2.772-1.932,0-1.372-1.792-2.016-3.584-2.744-2.184-.9-4.648-1.987-4.648-4.48,0-2.66,2.772-4.284,5.6-4.284a10.2,10.2,0,0,1,4.957,1.4Z"/><path d="M1201.772,315a1.86,1.86,0,0,1-1.819-1.849,1.822,1.822,0,0,1,1.819-1.848,1.846,1.846,0,0,1,1.849,1.848A1.884,1.884,0,0,1,1201.772,315Zm-1.455,16.939V317.6h2.94v14.336Z"/><path d="M1216.609,331.938V323.93a6.367,6.367,0,0,0-.643-3.3,2.836,2.836,0,0,0-2.632-1.429,5.9,5.9,0,0,0-2.968.84v11.9h-2.94V317.6h.588a3.148,3.148,0,0,0,1.427.42,4.317,4.317,0,0,0,1.429-.28,9.012,9.012,0,0,1,2.911-.531,5.4,5.4,0,0,1,4.788,2.267,7.047,7.047,0,0,1,1.009,4.088v8.372Z"/><path d="M1236.355,318.246a8.361,8.361,0,0,1-3.024.98,5.214,5.214,0,0,1,1.316,3.5,5.6,5.6,0,0,1-5.936,5.46,7.216,7.216,0,0,1-2.071-.336c-.645.533-.981,1.008-.981,1.4,0,.475.28.727.756.9a18.243,18.243,0,0,0,3.473.308c3.163.168,6.383.841,6.383,4.4a4.354,4.354,0,0,1-1.54,3.248,8.436,8.436,0,0,1-5.711,1.96c-4.7,0-6.973-1.652-6.973-3.752,0-1.4,1.2-2.632,2.828-3.3h.672a5.03,5.03,0,0,0-.951,2.631c0,1.6,1.455,2.716,4.311,2.716,2.1,0,4.565-.98,4.565-2.912,0-1.847-2.157-2.156-4.4-2.3a15.532,15.532,0,0,1-4.395-.616,2.434,2.434,0,0,1-1.653-2.156c0-1.119.644-2.128,2.157-3.22a5.226,5.226,0,0,1-2.409-4.424,5.586,5.586,0,0,1,5.909-5.488,6,6,0,0,1,2.855.616,7.913,7.913,0,0,0,3.864-1.68Zm-7.644.7c-1.819,0-2.94,1.681-2.94,3.752,0,2.1,1.092,3.78,2.94,3.78s2.969-1.652,2.969-3.752S1230.56,318.946,1228.711,318.946Z"/><path d="M1245.9,331.938V310.463h2.941v21.475Z"/><path d="M1259.275,332.47c-3.948,0-7.112-3.164-7.112-7.616,0-4.424,3.164-7.588,7.112-7.588,3.892,0,7.056,3.164,7.056,7.588C1266.331,329.306,1263.2,332.47,1259.275,332.47Zm0-13.44c-2.267,0-4,2.38-4,5.824,0,3.361,1.68,5.852,4,5.852,2.268,0,3.976-2.464,3.976-5.852C1263.251,321.438,1261.571,319.03,1259.275,319.03Z"/><path d="M1277.937,321.1a5.513,5.513,0,0,0-3.864-2.072c-1.428,0-2.492.784-2.492,1.876,0,1.345,1.652,1.849,3.388,2.52,2.24.9,4.843,1.9,4.843,4.48,0,2.884-2.8,4.564-5.683,4.564a12.1,12.1,0,0,1-5.74-1.708l1.2-2.324c1.12,1.065,2.912,2.268,4.508,2.268,1.624,0,2.772-.84,2.772-1.932,0-1.372-1.792-2.016-3.584-2.744-2.185-.9-4.648-1.987-4.648-4.48,0-2.66,2.772-4.284,5.6-4.284a10.2,10.2,0,0,1,4.956,1.4Z"/><path d="M1291.394,321.1a5.513,5.513,0,0,0-3.865-2.072c-1.427,0-2.492.784-2.492,1.876,0,1.345,1.652,1.849,3.389,2.52,2.239.9,4.844,1.9,4.844,4.48,0,2.884-2.8,4.564-5.684,4.564a12.1,12.1,0,0,1-5.74-1.708l1.2-2.324c1.12,1.065,2.912,2.268,4.508,2.268,1.624,0,2.771-.84,2.771-1.932,0-1.372-1.792-2.016-3.584-2.744-2.183-.9-4.647-1.987-4.647-4.48,0-2.66,2.771-4.284,5.6-4.284a10.19,10.19,0,0,1,4.956,1.4Z"/><path d="M1302.642,332.442c-4.145,0-7.113-3.3-7.113-7.588,0-4.34,3.025-7.616,7.029-7.616a5.84,5.84,0,0,1,6.159,6.16,10.521,10.521,0,0,1-.084,1.233l-10.024.252c.14,3.387,2.1,5.627,4.732,5.627a7.6,7.6,0,0,0,4.089-1.428l.84,1.484A9.155,9.155,0,0,1,1302.642,332.442Zm2.883-9.855c0-2.325-1.343-3.584-2.883-3.584-1.989,0-3.613,1.567-3.893,4.171l6.776-.28Z"/><path d="M1320.479,321.1a5.509,5.509,0,0,0-3.863-2.072c-1.429,0-2.492.784-2.492,1.876,0,1.345,1.652,1.849,3.388,2.52,2.24.9,4.843,1.9,4.843,4.48,0,2.884-2.8,4.564-5.683,4.564a12.1,12.1,0,0,1-5.74-1.708l1.2-2.324c1.12,1.065,2.912,2.268,4.508,2.268,1.624,0,2.772-.84,2.772-1.932,0-1.372-1.792-2.016-3.584-2.744-2.185-.9-4.648-1.987-4.648-4.48,0-2.66,2.772-4.284,5.6-4.284a10.2,10.2,0,0,1,4.956,1.4Z"/><path d="M1327.138,332.33a1.859,1.859,0,0,1-1.82-1.848,1.834,1.834,0,1,1,1.82,1.848Z"/><circle cx="988.389" cy="86.157" r="69.424" style="fill:#52b5e0"/><path d="M988.389,19.234a66.924,66.924,0,1,1-66.924,66.923,66.922,66.922,0,0,1,66.924-66.923m0-5a71.924,71.924,0,1,0,71.923,71.923,72.005,72.005,0,0,0-71.923-71.923Z" style="fill:#cbe9f6"/><path d="M973.288,66.007v47.4a.6.6,0,1,0,1.2,0v-47.4a.6.6,0,1,0-1.2,0Z" style="fill:#fff"/><path d="M1027.73,56.978a.6.6,0,1,0-1.2,0V92.966a24.82,24.82,0,0,0-41.414,23.828H939.63a1.885,1.885,0,0,0,0,3.762H986.4a24.822,24.822,0,1,0,41.335-26.329Zm-18.545,74.8a21.068,21.068,0,1,1,21.067-21.067A21.091,21.091,0,0,1,1009.185,131.78Z" style="fill:#fff"/><path d="M944.922,91.588a7.035,7.035,0,0,0,6.061-10.634L970.541,61.4a7.006,7.006,0,0,0,7.032-.2l14.335,13.327a7.052,7.052,0,1,0,12.224-.486l19.8-21.595a7.077,7.077,0,1,0-2.772-2.544l-19.795,21.6a6.984,6.984,0,0,0-6.889.278L980.14,58.444a7.052,7.052,0,1,0-12.307.341L948.279,78.339a7.05,7.05,0,1,0-3.357,13.249Zm82.206-48.711a3.289,3.289,0,1,1-3.288,3.288A3.293,3.293,0,0,1,1027.128,42.877Zm-28.967,31.6a3.289,3.289,0,1,1-3.289,3.289A3.293,3.293,0,0,1,998.161,74.477ZM973.89,51.905a3.289,3.289,0,1,1-3.289,3.289A3.293,3.293,0,0,1,973.89,51.905ZM944.922,81.249a3.289,3.289,0,1,1-3.289,3.289A3.293,3.293,0,0,1,944.922,81.249Z" style="fill:#fff"/><path d="M944.32,95.35v18.058a.6.6,0,1,0,1.2,0V95.35a.6.6,0,0,0-1.2,0Z" style="fill:#fff"/><path d="M1015.494,103.431c-1.281-1.409-3.844-3.245-6.107-3.245-1.922,0-4.313.9-4.313,3.373,0,2.691,3.459,3.63,5.466,4.442,3.544,1.409,7.815,3.331,7.815,7.558,0,4.4-3.673,7.217-7.687,7.644v4.869h-2.861v-4.826a18.43,18.43,0,0,1-8.028-2.818l1.964-3.5c1.623,1.537,4.825,3.587,7.473,3.587,2.733,0,4.612-1.452,4.612-3.459,0-2.221-2.434-3.459-5.68-4.74-3.886-1.495-7.857-3.5-7.857-7.559,0-4.1,3.8-6.832,7.729-7.26V93.353h2.861V97.5a16.021,16.021,0,0,1,6.62,2.306Z" style="fill:#fff"/><path d="M1096.6,23.771A6.418,6.418,0,0,0,1091.9,21.2c-1.96,0-3.416,1.232-3.416,2.94,0,2.044,2.212,2.94,4.4,3.836,2.687,1.12,5.656,2.464,5.656,5.684,0,3.724-3.276,5.992-6.692,5.992a13.03,13.03,0,0,1-6.748-2.156l1.26-2.6c1.316,1.4,3.5,2.884,5.572,2.884,2.128,0,3.7-1.316,3.7-3.08,0-2.072-2.324-3.08-4.7-4.116-2.6-1.148-5.516-2.576-5.516-5.656,0-3.444,3.388-5.6,6.692-5.6a11.333,11.333,0,0,1,5.767,1.792Z"/><path d="M1110.993,39.115V31.107a6.315,6.315,0,0,0-.643-3.3,2.865,2.865,0,0,0-2.632-1.428,5.625,5.625,0,0,0-3.08.924V39.115H1101.7V17.639h2.941v7.532a8.523,8.523,0,0,1,3.528-.784,5.528,5.528,0,0,1,4.815,2.464,7.2,7.2,0,0,1,.981,4v8.26Z"/><path d="M1129.331,39.115a2.764,2.764,0,0,0-1.372-.42,4.652,4.652,0,0,0-1.372.336,7.571,7.571,0,0,1-2.828.616,6.364,6.364,0,0,1-5.46-2.8,8.506,8.506,0,0,1-1.288-4.676,7.546,7.546,0,0,1,3-6.356,6.707,6.707,0,0,1,4.256-1.4,9.567,9.567,0,0,1,3.416.644l2.24-.532V39.115Zm-2.38-12.124a4.887,4.887,0,0,0-2.492-.7c-2.24,0-4.34,1.792-4.34,5.684,0,2.268.588,3.948,1.792,4.928a3.393,3.393,0,0,0,2.239.84,4.542,4.542,0,0,0,2.8-1.064Z"/><path d="M1142.115,27.131a6.3,6.3,0,0,0-2.575-.644,5.269,5.269,0,0,0-2.632.756V39.115h-2.94V24.779h.588a2.819,2.819,0,0,0,1.427.42,5.2,5.2,0,0,0,1.485-.308,8.316,8.316,0,0,1,5.544-.056Z"/><path d="M1150.709,39.619c-4.145,0-7.112-3.3-7.112-7.588,0-4.34,3.024-7.616,7.028-7.616a5.84,5.84,0,0,1,6.159,6.16,10.279,10.279,0,0,1-.084,1.232l-10.023.252c.139,3.388,2.1,5.628,4.731,5.628a7.6,7.6,0,0,0,4.089-1.429l.84,1.485A9.152,9.152,0,0,1,1150.709,39.619Zm2.884-9.856c0-2.324-1.344-3.584-2.884-3.584-1.988,0-3.612,1.568-3.893,4.172l6.777-.28Z"/><path d="M1169.418,39.115V31.107a6.3,6.3,0,0,0-.645-3.3,2.863,2.863,0,0,0-2.631-1.428,5.625,5.625,0,0,0-3.08.924V39.115h-2.94V17.639h2.94v7.532a8.523,8.523,0,0,1,3.528-.784,5.532,5.532,0,0,1,4.816,2.464,7.217,7.217,0,0,1,.98,4v8.26Z"/><path d="M1182.519,39.647c-3.948,0-7.112-3.164-7.112-7.616,0-4.424,3.164-7.588,7.112-7.588,3.892,0,7.056,3.164,7.056,7.588C1189.575,36.483,1186.439,39.647,1182.519,39.647Zm0-13.44c-2.268,0-4,2.38-4,5.824,0,3.36,1.68,5.852,4,5.852,2.268,0,3.976-2.464,3.976-5.852C1186.495,28.615,1184.815,26.207,1182.519,26.207Z"/><path d="M1192.913,39.115V17.639h2.94V39.115Z"/><path d="M1211.762,39.115a2.941,2.941,0,0,0-1.4-.42,4.056,4.056,0,0,0-1.4.336,8.1,8.1,0,0,1-2.912.588,6.355,6.355,0,0,1-5.6-2.94,8.117,8.117,0,0,1-1.2-4.508,7.551,7.551,0,0,1,2.968-6.328,7.356,7.356,0,0,1,4.452-1.428,7.268,7.268,0,0,1,2.688.448V17.639h3V39.115Zm-2.38-12.46a7.189,7.189,0,0,0-2.184-.42c-2.52,0-4.844,1.82-4.844,5.852,0,2.6,1.26,5.656,4.34,5.656a4.434,4.434,0,0,0,2.66-.924Z"/><path d="M1222.685,39.619c-4.144,0-7.113-3.3-7.113-7.588,0-4.34,3.025-7.616,7.029-7.616a5.841,5.841,0,0,1,6.16,6.16,10.713,10.713,0,0,1-.084,1.232l-10.025.252c.141,3.388,2.1,5.628,4.733,5.628a7.6,7.6,0,0,0,4.088-1.429l.839,1.485A9.151,9.151,0,0,1,1222.685,39.619Zm2.883-9.856c0-2.324-1.343-3.584-2.883-3.584-1.989,0-3.613,1.568-3.892,4.172l6.775-.28Z"/><path d="M1240.215,27.131a6.3,6.3,0,0,0-2.575-.644,5.263,5.263,0,0,0-2.632.756V39.115h-2.941V24.779h.588a2.822,2.822,0,0,0,1.428.42,5.191,5.191,0,0,0,1.484-.308,8.316,8.316,0,0,1,5.544-.056Z"/><path d="M1251.636,28.279a5.513,5.513,0,0,0-3.864-2.072c-1.428,0-2.492.784-2.492,1.876,0,1.344,1.653,1.848,3.388,2.52,2.24.9,4.844,1.9,4.844,4.48,0,2.883-2.8,4.564-5.684,4.564a12.1,12.1,0,0,1-5.74-1.708l1.2-2.324c1.12,1.064,2.912,2.268,4.508,2.268,1.624,0,2.772-.84,2.772-1.932,0-1.372-1.792-2.016-3.584-2.744-2.184-.9-4.648-1.988-4.648-4.48,0-2.66,2.772-4.284,5.6-4.284a10.208,10.208,0,0,1,4.956,1.4Z"/><path d="M1270.171,39.591A7.042,7.042,0,0,1,1263,32.227c0-4.564,3.024-7.812,7.2-7.812a9.845,9.845,0,0,1,4.985,1.456l-1.176,2.436c-1.233-1.26-2.408-2.1-3.893-2.1-1.876,0-3.975,1.96-3.975,5.292,0,3.976,2.267,6.188,4.675,6.188a6.983,6.983,0,0,0,3.892-1.4l.813,1.456A8.372,8.372,0,0,1,1270.171,39.591Z"/><path d="M1289.379,39.115a2.764,2.764,0,0,0-1.372-.42,4.66,4.66,0,0,0-1.372.336,7.566,7.566,0,0,1-2.827.616,6.361,6.361,0,0,1-5.46-2.8,8.5,8.5,0,0,1-1.288-4.676,7.543,7.543,0,0,1,3-6.356,6.7,6.7,0,0,1,4.256-1.4,9.571,9.571,0,0,1,3.416.644l2.239-.532V39.115ZM1287,26.991a4.887,4.887,0,0,0-2.492-.7c-2.239,0-4.34,1.792-4.34,5.684,0,2.268.588,3.948,1.792,4.928a3.394,3.394,0,0,0,2.24.84,4.541,4.541,0,0,0,2.8-1.064Z"/><path d="M1303.2,39.115V31.107a6.372,6.372,0,0,0-.644-3.3,2.836,2.836,0,0,0-2.632-1.428,5.89,5.89,0,0,0-2.968.84v11.9h-2.94V24.779h.588a3.152,3.152,0,0,0,1.428.42,4.311,4.311,0,0,0,1.428-.28,9.01,9.01,0,0,1,2.912-.532,5.4,5.4,0,0,1,4.788,2.268,7.054,7.054,0,0,1,1.008,4.088v8.372Z"/><path d="M1334.055,39.115V30.966a6.752,6.752,0,0,0-.532-3.079A2.859,2.859,0,0,0,1331,26.4a4.9,4.9,0,0,0-2.828.952,8.679,8.679,0,0,1,.336,3.164v8.6h-2.884V29.847a4.626,4.626,0,0,0-.308-2.072,2.533,2.533,0,0,0-2.352-1.4,5.524,5.524,0,0,0-2.912.924V39.115h-2.912V24.779h.42a3.253,3.253,0,0,0,1.484.42c1.2,0,2.268-.812,4.312-.812a5.2,5.2,0,0,1,3.752,1.344,8.385,8.385,0,0,1,4.424-1.344,5.038,5.038,0,0,1,4.592,2.408,7.7,7.7,0,0,1,.868,3.948v8.372Z"/><path d="M1352.378,39.115a2.764,2.764,0,0,0-1.372-.42,4.66,4.66,0,0,0-1.372.336,7.566,7.566,0,0,1-2.827.616,6.361,6.361,0,0,1-5.46-2.8,8.506,8.506,0,0,1-1.288-4.676,7.543,7.543,0,0,1,3-6.356,6.7,6.7,0,0,1,4.256-1.4,9.571,9.571,0,0,1,3.416.644l2.239-.532V39.115ZM1350,26.991a4.887,4.887,0,0,0-2.492-.7c-2.239,0-4.34,1.792-4.34,5.684,0,2.268.588,3.948,1.792,4.928a3.394,3.394,0,0,0,2.24.84,4.541,4.541,0,0,0,2.8-1.064Z"/><path d="M1370.032,39.115h-3.724L1359.979,32v7.112h-2.939V17.639h2.939V31.387c3.249-3.22,4.9-5.18,5.46-6.608h3.725l-6.3,6.3Z"/><path d="M1377.281,39.619c-4.143,0-7.112-3.3-7.112-7.588,0-4.34,3.024-7.616,7.028-7.616a5.841,5.841,0,0,1,6.16,6.16,10.491,10.491,0,0,1-.084,1.232l-10.024.252c.141,3.388,2.1,5.628,4.732,5.628a7.591,7.591,0,0,0,4.088-1.429l.84,1.485A9.152,9.152,0,0,1,1377.281,39.619Zm2.884-9.856c0-2.324-1.344-3.584-2.884-3.584-1.988,0-3.612,1.568-3.891,4.172l6.775-.28Z"/><path d="M1097.582,72.715a2.754,2.754,0,0,0-1.372-.42,4.652,4.652,0,0,0-1.372.336,7.571,7.571,0,0,1-2.828.616,6.366,6.366,0,0,1-5.46-2.8,8.509,8.509,0,0,1-1.288-4.677,7.544,7.544,0,0,1,3-6.355,6.7,6.7,0,0,1,4.256-1.4,9.568,9.568,0,0,1,3.416.645l2.24-.532V72.715Zm-2.38-12.124a4.887,4.887,0,0,0-2.492-.7c-2.24,0-4.34,1.792-4.34,5.685,0,2.267.588,3.947,1.792,4.928a3.392,3.392,0,0,0,2.239.839,4.547,4.547,0,0,0,2.8-1.063Z"/><path d="M1117.518,60.73a6.318,6.318,0,0,0-2.577-.643,5.264,5.264,0,0,0-2.631.755V72.715h-2.941V58.379h.589a2.83,2.83,0,0,0,1.428.42,5.2,5.2,0,0,0,1.483-.308,8.324,8.324,0,0,1,5.544-.057Z"/><path d="M1126.11,73.218c-4.143,0-7.112-3.3-7.112-7.587,0-4.34,3.024-7.617,7.028-7.617a5.842,5.842,0,0,1,6.161,6.16,10.729,10.729,0,0,1-.084,1.233l-10.025.252c.141,3.388,2.1,5.628,4.733,5.628a7.59,7.59,0,0,0,4.087-1.429l.84,1.484A9.152,9.152,0,0,1,1126.11,73.218Zm2.884-9.855c0-2.324-1.344-3.584-2.884-3.584-1.988,0-3.612,1.567-3.891,4.172l6.775-.28Z"/><path d="M1138.444,73.079a2.8,2.8,0,0,1-2.212-.9,3.957,3.957,0,0,1-.755-2.6V54.291l2.912-.756v4.844h3.947v1.792h-3.947v9.267c0,1.065.559,1.456,1.343,1.456a8.407,8.407,0,0,0,2.829-.867l.616,1.483A9.8,9.8,0,0,1,1138.444,73.079Z"/><path d="M1156.5,72.715a3.246,3.246,0,0,0-1.428-.42,4.154,4.154,0,0,0-1.4.28,9.109,9.109,0,0,1-2.94.559,5.536,5.536,0,0,1-4.816-2.3,7.443,7.443,0,0,1-.98-4.088V58.379h2.94v8.007a6.486,6.486,0,0,0,.644,3.332,2.962,2.962,0,0,0,2.66,1.428,5.8,5.8,0,0,0,2.94-.867v-11.9h2.968V72.715Z"/><path d="M1169.288,60.73a6.314,6.314,0,0,0-2.576-.643,5.27,5.27,0,0,0-2.632.755V72.715h-2.94V58.379h.589a2.826,2.826,0,0,0,1.427.42,5.2,5.2,0,0,0,1.484-.308,8.324,8.324,0,0,1,5.544-.057Z"/><path d="M1181.481,72.715V64.707a6.368,6.368,0,0,0-.643-3.3,2.836,2.836,0,0,0-2.632-1.429,5.9,5.9,0,0,0-2.968.84v11.9h-2.94V58.379h.588a3.164,3.164,0,0,0,1.427.42,4.319,4.319,0,0,0,1.429-.281,9.039,9.039,0,0,1,2.911-.531,5.4,5.4,0,0,1,4.788,2.268,7.044,7.044,0,0,1,1.009,4.087v8.373Z"/><path d="M1201.613,73.247c-3.948,0-7.112-3.164-7.112-7.616,0-4.424,3.164-7.588,7.112-7.588,3.892,0,7.056,3.164,7.056,7.588C1208.669,70.083,1205.533,73.247,1201.613,73.247Zm0-13.441c-2.267,0-4,2.38-4,5.825,0,3.36,1.68,5.851,4,5.851,2.268,0,3.976-2.464,3.976-5.851C1205.589,62.215,1203.909,59.806,1201.613,59.806Z"/><path d="M1221.081,72.715V64.707a6.357,6.357,0,0,0-.644-3.3,2.835,2.835,0,0,0-2.631-1.429,5.9,5.9,0,0,0-2.968.84v11.9H1211.9V58.379h.588a3.168,3.168,0,0,0,1.428.42,4.319,4.319,0,0,0,1.429-.281,9.033,9.033,0,0,1,2.911-.531,5.4,5.4,0,0,1,4.788,2.268,7.044,7.044,0,0,1,1.009,4.087v8.373Z"/><path d="M1238.049,73.079a2.8,2.8,0,0,1-2.212-.9,3.951,3.951,0,0,1-.756-2.6V54.291l2.912-.756v4.844h3.947v1.792h-3.947v9.267c0,1.065.56,1.456,1.344,1.456a8.408,8.408,0,0,0,2.828-.867l.616,1.483A9.8,9.8,0,0,1,1238.049,73.079Z"/><path d="M1254.409,72.715V64.707a6.3,6.3,0,0,0-.644-3.3,2.864,2.864,0,0,0-2.632-1.429,5.636,5.636,0,0,0-3.08.924V72.715h-2.94V51.239h2.94V58.77a8.546,8.546,0,0,1,3.528-.783,5.531,5.531,0,0,1,4.816,2.464,7.2,7.2,0,0,1,.98,4v8.26Z"/><path d="M1267.524,73.218c-4.144,0-7.112-3.3-7.112-7.587,0-4.34,3.025-7.617,7.028-7.617a5.841,5.841,0,0,1,6.16,6.16,10.507,10.507,0,0,1-.084,1.233l-10.024.252c.14,3.388,2.1,5.628,4.732,5.628a7.6,7.6,0,0,0,4.088-1.429l.84,1.484A9.152,9.152,0,0,1,1267.524,73.218Zm2.884-9.855c0-2.324-1.344-3.584-2.884-3.584-1.988,0-3.612,1.567-3.892,4.172l6.776-.28Z"/><path d="M1278.41,55.775a1.86,1.86,0,0,1-1.82-1.849,1.822,1.822,0,0,1,1.82-1.847,1.845,1.845,0,0,1,1.848,1.847A1.883,1.883,0,0,1,1278.41,55.775Zm-1.456,16.94V58.379h2.941V72.715Z"/><path d="M1292.211,60.73a6.31,6.31,0,0,0-2.575-.643,5.264,5.264,0,0,0-2.632.755V72.715h-2.941V58.379h.588a2.835,2.835,0,0,0,1.428.42,5.191,5.191,0,0,0,1.484-.308,8.324,8.324,0,0,1,5.544-.057Z"/><path d="M1303.774,55.775a1.86,1.86,0,0,1-1.819-1.849,1.822,1.822,0,0,1,1.819-1.847,1.846,1.846,0,0,1,1.849,1.847A1.884,1.884,0,0,1,1303.774,55.775Zm-1.455,16.94V58.379h2.94V72.715Z"/><path d="M1318.612,72.715V64.707a6.367,6.367,0,0,0-.644-3.3,2.835,2.835,0,0,0-2.632-1.429,5.9,5.9,0,0,0-2.968.84v11.9h-2.94V58.379h.589a3.158,3.158,0,0,0,1.427.42,4.313,4.313,0,0,0,1.428-.281,9.04,9.04,0,0,1,2.912-.531,5.4,5.4,0,0,1,4.788,2.268,7.051,7.051,0,0,1,1.008,4.087v8.373Z"/><path d="M1331.29,72.715h-2.324L1323,58.379h3.276l4.451,11.032c.5-1.149,2.044-5.237,2.3-5.992a33.312,33.312,0,0,0,1.288-5.04h2.969Z"/><path d="M1345.145,73.218c-4.145,0-7.113-3.3-7.113-7.587,0-4.34,3.025-7.617,7.029-7.617a5.841,5.841,0,0,1,6.159,6.16,10.507,10.507,0,0,1-.084,1.233l-10.024.252c.14,3.388,2.1,5.628,4.732,5.628a7.6,7.6,0,0,0,4.089-1.429l.839,1.484A9.151,9.151,0,0,1,1345.145,73.218Zm2.883-9.855c0-2.324-1.343-3.584-2.883-3.584-1.989,0-3.613,1.567-3.893,4.172l6.776-.28Z"/><path d="M1362.982,61.879a5.506,5.506,0,0,0-3.863-2.073c-1.429,0-2.492.785-2.492,1.876,0,1.345,1.652,1.849,3.388,2.521,2.24.895,4.843,1.9,4.843,4.479,0,2.884-2.8,4.565-5.683,4.565a12.115,12.115,0,0,1-5.74-1.708l1.2-2.324c1.12,1.064,2.912,2.267,4.507,2.267,1.625,0,2.773-.84,2.773-1.932,0-1.372-1.792-2.015-3.584-2.744-2.185-.895-4.648-1.987-4.648-4.479,0-2.66,2.772-4.284,5.6-4.284a10.211,10.211,0,0,1,4.956,1.4Z"/><path d="M1370.985,73.079a2.8,2.8,0,0,1-2.213-.9,3.957,3.957,0,0,1-.755-2.6V54.291l2.912-.756v4.844h3.948v1.792h-3.948v9.267c0,1.065.56,1.456,1.343,1.456a8.407,8.407,0,0,0,2.829-.867l.616,1.483A9.8,9.8,0,0,1,1370.985,73.079Z"/><path d="M1394.934,72.715V64.566a6.737,6.737,0,0,0-.533-3.079A2.859,2.859,0,0,0,1391.882,60a4.9,4.9,0,0,0-2.828.952,8.679,8.679,0,0,1,.336,3.164v8.6h-2.884V63.447a4.606,4.606,0,0,0-.309-2.072,2.531,2.531,0,0,0-2.351-1.4,5.53,5.53,0,0,0-2.912.924V72.715h-2.913V58.379h.42a3.272,3.272,0,0,0,1.485.42c1.2,0,2.267-.812,4.311-.812a5.194,5.194,0,0,1,3.752,1.344,8.378,8.378,0,0,1,4.424-1.344,5.038,5.038,0,0,1,4.593,2.407,7.715,7.715,0,0,1,.867,3.948v8.373Z"/><path d="M1408.034,73.218c-4.143,0-7.112-3.3-7.112-7.587,0-4.34,3.024-7.617,7.028-7.617a5.841,5.841,0,0,1,6.16,6.16,10.507,10.507,0,0,1-.084,1.233L1404,65.659c.141,3.388,2.1,5.628,4.732,5.628a7.591,7.591,0,0,0,4.088-1.429l.84,1.484A9.152,9.152,0,0,1,1408.034,73.218Zm2.884-9.855c0-2.324-1.344-3.584-2.884-3.584-1.988,0-3.612,1.567-3.891,4.172l6.775-.28Z"/><path d="M1426.6,72.715V64.707a6.366,6.366,0,0,0-.645-3.3,2.835,2.835,0,0,0-2.632-1.429,5.9,5.9,0,0,0-2.968.84v11.9h-2.94V58.379h.589a3.161,3.161,0,0,0,1.428.42,4.312,4.312,0,0,0,1.427-.281,9.04,9.04,0,0,1,2.912-.531,5.4,5.4,0,0,1,4.788,2.268,7.051,7.051,0,0,1,1.008,4.087v8.373Z"/><path d="M1436.437,73.079a2.8,2.8,0,0,1-2.212-.9,3.951,3.951,0,0,1-.756-2.6V54.291l2.912-.756v4.844h3.947v1.792h-3.947v9.267c0,1.065.559,1.456,1.344,1.456a8.408,8.408,0,0,0,2.828-.867l.616,1.483A9.8,9.8,0,0,1,1436.437,73.079Z"/><path d="M1089.126,92.4a8.144,8.144,0,0,1,3.388-.784,6.216,6.216,0,0,1,5.124,2.38,8.848,8.848,0,0,1,1.624,5.236,8.516,8.516,0,0,1-1.176,4.649,6.359,6.359,0,0,1-5.544,2.939,8.463,8.463,0,0,1-3-.588,4.273,4.273,0,0,0-1.372-.336,2.388,2.388,0,0,0-1.372.42h-.616V84.84h2.94Zm2.8,12.516a3.579,3.579,0,0,0,3-1.428,6.518,6.518,0,0,0,1.26-4.144c0-3.752-1.54-5.879-4.06-5.879a6.563,6.563,0,0,0-3,.811v9.744A5.15,5.15,0,0,0,1091.926,104.915Z"/><path d="M1108.286,106.259a29.973,29.973,0,0,1-4.284,7.616l-2.268-1.764a14.808,14.808,0,0,0,4.48-5.8l-6.132-14.336h3.248l4.452,10.92c.476-1.148,1.988-5.18,2.239-5.935a29.159,29.159,0,0,0,1.233-4.985h2.94Z"/><path d="M1131.973,95.479a5.513,5.513,0,0,0-3.864-2.072c-1.428,0-2.492.784-2.492,1.876,0,1.345,1.653,1.849,3.388,2.52,2.24.9,4.844,1.9,4.844,4.48,0,2.884-2.8,4.564-5.684,4.564a12.1,12.1,0,0,1-5.74-1.708l1.2-2.324c1.12,1.065,2.912,2.268,4.508,2.268,1.624,0,2.772-.84,2.772-1.932,0-1.372-1.792-2.016-3.584-2.744-2.184-.9-4.648-1.987-4.648-4.48,0-2.66,2.772-4.284,5.6-4.284a10.2,10.2,0,0,1,4.956,1.4Z"/><path d="M1143.221,106.819c-4.144,0-7.113-3.3-7.113-7.588,0-4.34,3.025-7.616,7.029-7.616a5.841,5.841,0,0,1,6.16,6.16,10.521,10.521,0,0,1-.084,1.233l-10.025.251c.141,3.388,2.1,5.628,4.733,5.628a7.6,7.6,0,0,0,4.088-1.428l.84,1.484A9.155,9.155,0,0,1,1143.221,106.819Zm2.883-9.855c0-2.325-1.343-3.584-2.883-3.584-1.989,0-3.613,1.567-3.892,4.171l6.775-.28Z"/><path d="M1152.716,106.315V84.84h2.939v21.475Z"/><path d="M1159.929,106.315V84.84h2.939v21.475Z"/><path d="M1168.628,89.376a1.859,1.859,0,0,1-1.82-1.849,1.823,1.823,0,0,1,1.82-1.848,1.846,1.846,0,0,1,1.848,1.848A1.883,1.883,0,0,1,1168.628,89.376Zm-1.456,16.939V91.979h2.94v14.336Z"/><path d="M1183.465,106.315V98.307a6.354,6.354,0,0,0-.645-3.3,2.834,2.834,0,0,0-2.632-1.429,5.887,5.887,0,0,0-2.967.84v11.9h-2.941V91.979h.589a3.152,3.152,0,0,0,1.428.42,4.311,4.311,0,0,0,1.428-.28,9,9,0,0,1,2.912-.531,5.4,5.4,0,0,1,4.788,2.267,7.054,7.054,0,0,1,1.008,4.088v8.372Z"/><path d="M1203.21,92.623a8.362,8.362,0,0,1-3.023.98,5.219,5.219,0,0,1,1.315,3.5,5.6,5.6,0,0,1-5.936,5.46,7.224,7.224,0,0,1-2.072-.336c-.643.532-.979,1.008-.979,1.4,0,.476.279.728.756.9a18.211,18.211,0,0,0,3.471.308c3.164.168,6.384.841,6.384,4.4a4.357,4.357,0,0,1-1.54,3.248,8.437,8.437,0,0,1-5.712,1.96c-4.7,0-6.972-1.652-6.972-3.752,0-1.4,1.2-2.632,2.828-3.3h.672a5.033,5.033,0,0,0-.952,2.631c0,1.6,1.456,2.716,4.313,2.716,2.1,0,4.563-.98,4.563-2.912,0-1.848-2.156-2.156-4.395-2.3a15.546,15.546,0,0,1-4.4-.616,2.436,2.436,0,0,1-1.652-2.156c0-1.12.644-2.128,2.156-3.22a5.228,5.228,0,0,1-2.408-4.424,5.585,5.585,0,0,1,5.908-5.488,6.016,6.016,0,0,1,2.857.616,7.9,7.9,0,0,0,3.863-1.68Zm-7.644.7c-1.82,0-2.94,1.681-2.94,3.752,0,2.1,1.092,3.78,2.94,3.78s2.968-1.652,2.968-3.752S1197.414,93.323,1195.566,93.323Z"/><path d="M1221.045,95.479a5.512,5.512,0,0,0-3.863-2.072c-1.429,0-2.493.784-2.493,1.876,0,1.345,1.653,1.849,3.388,2.52,2.24.9,4.844,1.9,4.844,4.48,0,2.884-2.8,4.564-5.684,4.564a12.1,12.1,0,0,1-5.74-1.708l1.2-2.324c1.12,1.065,2.912,2.268,4.508,2.268,1.624,0,2.772-.84,2.772-1.932,0-1.372-1.792-2.016-3.584-2.744-2.184-.9-4.648-1.987-4.648-4.48,0-2.66,2.772-4.284,5.6-4.284a10.2,10.2,0,0,1,4.956,1.4Z"/><path d="M1229.048,106.679a2.8,2.8,0,0,1-2.213-.9,3.956,3.956,0,0,1-.756-2.6V87.891l2.912-.756v4.844h3.948v1.792h-3.948v9.268c0,1.064.561,1.456,1.344,1.456a8.386,8.386,0,0,0,2.828-.868l.616,1.484A9.8,9.8,0,0,1,1229.048,106.679Z"/><path d="M1241.958,106.847c-3.948,0-7.112-3.164-7.112-7.616,0-4.424,3.164-7.588,7.112-7.588,3.892,0,7.056,3.164,7.056,7.588C1249.014,103.683,1245.878,106.847,1241.958,106.847Zm0-13.44c-2.268,0-4,2.38-4,5.824,0,3.36,1.68,5.852,4,5.852,2.268,0,3.976-2.464,3.976-5.852C1245.934,95.815,1244.254,93.407,1241.958,93.407Z"/><path d="M1258.581,106.791a7.041,7.041,0,0,1-7.168-7.364c0-4.564,3.024-7.812,7.2-7.812a9.842,9.842,0,0,1,4.985,1.456l-1.176,2.437c-1.232-1.261-2.408-2.1-3.893-2.1-1.876,0-3.975,1.96-3.975,5.292,0,3.976,2.267,6.188,4.676,6.188a6.982,6.982,0,0,0,3.891-1.4l.813,1.456A8.37,8.37,0,0,1,1258.581,106.791Z"/><path d="M1279.62,106.315H1275.9l-6.328-7.112v7.112h-2.94V84.84h2.94V98.588c3.248-3.221,4.9-5.181,5.46-6.609h3.724l-6.3,6.3Z"/><path d="M1290.408,95.479a5.512,5.512,0,0,0-3.863-2.072c-1.429,0-2.492.784-2.492,1.876,0,1.345,1.652,1.849,3.387,2.52,2.241.9,4.844,1.9,4.844,4.48,0,2.884-2.8,4.564-5.683,4.564a12.107,12.107,0,0,1-5.741-1.708l1.2-2.324c1.121,1.065,2.913,2.268,4.508,2.268,1.624,0,2.773-.84,2.773-1.932,0-1.372-1.792-2.016-3.584-2.744-2.185-.9-4.649-1.987-4.649-4.48,0-2.66,2.773-4.284,5.6-4.284a10.2,10.2,0,0,1,4.956,1.4Z"/><path d="M1314.124,106.315a2.764,2.764,0,0,0-1.372-.42,4.66,4.66,0,0,0-1.372.336,7.561,7.561,0,0,1-2.827.616,6.364,6.364,0,0,1-5.46-2.8,8.512,8.512,0,0,1-1.288-4.677,7.545,7.545,0,0,1,3-6.356,6.7,6.7,0,0,1,4.256-1.4,9.571,9.571,0,0,1,3.416.644l2.239-.532v14.588Zm-2.38-12.124a4.884,4.884,0,0,0-2.492-.7c-2.239,0-4.34,1.792-4.34,5.684,0,2.268.588,3.948,1.792,4.928a3.394,3.394,0,0,0,2.24.84,4.544,4.544,0,0,0,2.8-1.063Z"/><path d="M1321.749,106.679a2.8,2.8,0,0,1-2.213-.9,3.962,3.962,0,0,1-.756-2.6V87.891l2.912-.756v4.844h3.949v1.792h-3.949v9.268c0,1.064.561,1.456,1.344,1.456a8.386,8.386,0,0,0,2.828-.868l.616,1.484A9.8,9.8,0,0,1,1321.749,106.679Z"/><path d="M1347.284,106.315a2.764,2.764,0,0,0-1.372-.42,4.652,4.652,0,0,0-1.372.336,7.567,7.567,0,0,1-2.828.616,6.365,6.365,0,0,1-5.46-2.8,8.512,8.512,0,0,1-1.288-4.677,7.547,7.547,0,0,1,3-6.356,6.707,6.707,0,0,1,4.256-1.4,9.567,9.567,0,0,1,3.416.644l2.24-.532v14.588Zm-2.38-12.124a4.887,4.887,0,0,0-2.492-.7c-2.24,0-4.34,1.792-4.34,5.684,0,2.268.588,3.948,1.792,4.928a3.394,3.394,0,0,0,2.24.84,4.547,4.547,0,0,0,2.8-1.063Z"/><path d="M1368.424,106.315V98.307a6.3,6.3,0,0,0-.645-3.3,2.864,2.864,0,0,0-2.632-1.429,5.63,5.63,0,0,0-3.08.924v11.816h-2.939V84.84h2.939v7.531a8.535,8.535,0,0,1,3.529-.783,5.531,5.531,0,0,1,4.816,2.463,7.217,7.217,0,0,1,.98,4v8.26Z"/><path d="M1376.812,89.376a1.86,1.86,0,0,1-1.82-1.849,1.823,1.823,0,0,1,1.82-1.848,1.846,1.846,0,0,1,1.848,1.848A1.883,1.883,0,0,1,1376.812,89.376Zm-1.456,16.939V91.979h2.941v14.336Z"/><path d="M1395.4,92.623a8.35,8.35,0,0,1-3.023.98,5.214,5.214,0,0,1,1.315,3.5,5.6,5.6,0,0,1-5.935,5.46,7.225,7.225,0,0,1-2.073-.336c-.643.532-.979,1.008-.979,1.4,0,.476.279.728.756.9a18.215,18.215,0,0,0,3.472.308c3.164.168,6.383.841,6.383,4.4a4.357,4.357,0,0,1-1.54,3.248,8.437,8.437,0,0,1-5.712,1.96c-4.7,0-6.971-1.652-6.971-3.752,0-1.4,1.2-2.632,2.828-3.3h.672a5.033,5.033,0,0,0-.952,2.631c0,1.6,1.456,2.716,4.312,2.716,2.1,0,4.564-.98,4.564-2.912,0-1.848-2.157-2.156-4.4-2.3a15.544,15.544,0,0,1-4.4-.616,2.436,2.436,0,0,1-1.653-2.156c0-1.12.645-2.128,2.156-3.22a5.23,5.23,0,0,1-2.408-4.424,5.585,5.585,0,0,1,5.908-5.488,6.013,6.013,0,0,1,2.857.616,7.9,7.9,0,0,0,3.863-1.68Zm-7.643.7c-1.821,0-2.941,1.681-2.941,3.752,0,2.1,1.092,3.78,2.941,3.78s2.968-1.652,2.968-3.752S1389.608,93.323,1387.761,93.323Z"/><path d="M1407.019,106.315V98.307a6.3,6.3,0,0,0-.645-3.3,2.864,2.864,0,0,0-2.632-1.429,5.63,5.63,0,0,0-3.08.924v11.816h-2.939V84.84h2.939v7.531a8.534,8.534,0,0,1,3.528-.783,5.533,5.533,0,0,1,4.817,2.463,7.217,7.217,0,0,1,.979,4v8.26Z"/><path d="M1420.134,106.819c-4.145,0-7.113-3.3-7.113-7.588,0-4.34,3.025-7.616,7.029-7.616a5.84,5.84,0,0,1,6.159,6.16,10.308,10.308,0,0,1-.084,1.233l-10.023.251c.139,3.388,2.1,5.628,4.731,5.628a7.608,7.608,0,0,0,4.089-1.428l.84,1.484A9.155,9.155,0,0,1,1420.134,106.819Zm2.884-9.855c0-2.325-1.344-3.584-2.884-3.584-1.988,0-3.613,1.567-3.893,4.171l6.777-.28Z"/><path d="M1437.667,94.331a6.3,6.3,0,0,0-2.576-.644,5.269,5.269,0,0,0-2.632.756v11.872h-2.94V91.979h.588a2.822,2.822,0,0,0,1.428.42,5.2,5.2,0,0,0,1.484-.308,8.329,8.329,0,0,1,5.543-.056Z"/><path d="M1086.773,125.579a3.216,3.216,0,0,0,1.54.42,4.208,4.208,0,0,0,1.345-.308,8.123,8.123,0,0,1,2.827-.5,6.285,6.285,0,0,1,4.929,2.3,8.584,8.584,0,0,1,1.876,5.376c0,3.863-2.24,7.588-6.692,7.588a8.634,8.634,0,0,1-3.472-.784v7.588h-2.94V125.579Zm5.376,13.019c2.521,0,4.061-2.155,4.061-5.907,0-3.024-1.54-5.628-4.313-5.628a5.065,5.065,0,0,0-2.771.867v9.8A6.262,6.262,0,0,0,1092.149,138.6Z"/><path d="M1110.708,127.93a6.314,6.314,0,0,0-2.576-.643,5.259,5.259,0,0,0-2.632.756v11.872h-2.94V125.579h.588a2.832,2.832,0,0,0,1.428.42,5.2,5.2,0,0,0,1.484-.308,8.324,8.324,0,0,1,5.544-.057Z"/><path d="M1115.3,122.975a1.859,1.859,0,0,1-1.82-1.848,1.823,1.823,0,0,1,1.82-1.848,1.846,1.846,0,0,1,1.848,1.848A1.883,1.883,0,0,1,1115.3,122.975Zm-1.456,16.94V125.579h2.94v14.336Z"/><path d="M1127.219,140.39a7.04,7.04,0,0,1-7.168-7.363c0-4.564,3.024-7.812,7.2-7.812a9.828,9.828,0,0,1,4.984,1.456l-1.175,2.436c-1.233-1.261-2.409-2.1-3.893-2.1-1.876,0-3.976,1.959-3.976,5.292,0,3.976,2.268,6.188,4.676,6.188a6.993,6.993,0,0,0,3.892-1.4l.812,1.456A8.367,8.367,0,0,1,1127.219,140.39Z"/><path d="M1141.205,140.419c-4.144,0-7.112-3.3-7.112-7.588,0-4.34,3.024-7.616,7.028-7.616a5.84,5.84,0,0,1,6.159,6.16,10.279,10.279,0,0,1-.084,1.232l-10.023.252c.139,3.388,2.1,5.628,4.731,5.628a7.6,7.6,0,0,0,4.089-1.429l.84,1.485A9.158,9.158,0,0,1,1141.205,140.419Zm2.884-9.856c0-2.324-1.344-3.584-2.884-3.584-1.988,0-3.612,1.568-3.893,4.172l6.777-.28Z"/><path d="M1160.749,140.279a2.8,2.8,0,0,1-2.213-.9,3.962,3.962,0,0,1-.756-2.6V121.491l2.912-.756v4.844h3.949v1.792h-3.949v9.267c0,1.065.561,1.456,1.344,1.456a8.363,8.363,0,0,0,2.828-.868l.616,1.485A9.8,9.8,0,0,1,1160.749,140.279Z"/><path d="M1177.108,139.915v-8.008a6.315,6.315,0,0,0-.643-3.3,2.864,2.864,0,0,0-2.632-1.429,5.633,5.633,0,0,0-3.08.924v11.817h-2.941V118.439h2.941v7.531a8.542,8.542,0,0,1,3.528-.783,5.531,5.531,0,0,1,4.816,2.464,7.209,7.209,0,0,1,.98,4v8.26Z"/><path d="M1195.445,139.915a2.754,2.754,0,0,0-1.372-.42,4.66,4.66,0,0,0-1.372.336,7.556,7.556,0,0,1-2.827.616,6.362,6.362,0,0,1-5.46-2.8,8.509,8.509,0,0,1-1.288-4.677,7.543,7.543,0,0,1,3-6.355,6.7,6.7,0,0,1,4.256-1.4,9.567,9.567,0,0,1,3.416.644l2.239-.532v14.588Zm-2.38-12.124a4.884,4.884,0,0,0-2.492-.7c-2.239,0-4.34,1.792-4.34,5.684,0,2.268.588,3.947,1.792,4.928a3.4,3.4,0,0,0,2.241.84,4.544,4.544,0,0,0,2.8-1.064Z"/><path d="M1209.267,139.915v-8.008a6.368,6.368,0,0,0-.645-3.3,2.835,2.835,0,0,0-2.632-1.429,5.9,5.9,0,0,0-2.968.84v11.9h-2.94V125.579h.589a3.161,3.161,0,0,0,1.428.42,4.307,4.307,0,0,0,1.427-.281,9.04,9.04,0,0,1,2.912-.531,5.4,5.4,0,0,1,4.789,2.268,7.062,7.062,0,0,1,1.007,4.088v8.372Z"/><path d="M1223.854,125.579a3.21,3.21,0,0,0,1.54.42,4.208,4.208,0,0,0,1.344-.308,8.123,8.123,0,0,1,2.827-.5,6.285,6.285,0,0,1,4.929,2.3,8.584,8.584,0,0,1,1.876,5.376c0,3.863-2.24,7.588-6.692,7.588a8.638,8.638,0,0,1-3.472-.784v7.588h-2.94V125.579Zm5.375,13.019c2.521,0,4.061-2.155,4.061-5.907,0-3.024-1.54-5.628-4.312-5.628a5.065,5.065,0,0,0-2.772.867v9.8A6.262,6.262,0,0,0,1229.229,138.6Z"/><path d="M1251,139.915a3.252,3.252,0,0,0-1.429-.42,4.153,4.153,0,0,0-1.4.28,9.106,9.106,0,0,1-2.94.56,5.537,5.537,0,0,1-4.816-2.3,7.443,7.443,0,0,1-.98-4.088v-8.372h2.94v8.008a6.48,6.48,0,0,0,.644,3.332,2.962,2.962,0,0,0,2.66,1.427,5.793,5.793,0,0,0,2.939-.867v-11.9h2.969v14.336Z"/><path d="M1263.781,127.93a6.314,6.314,0,0,0-2.576-.643,5.261,5.261,0,0,0-2.632.756v11.872h-2.94V125.579h.589a2.826,2.826,0,0,0,1.427.42,5.2,5.2,0,0,0,1.484-.308,8.324,8.324,0,0,1,5.544-.057Z"/><path d="M1272.416,140.39a7.04,7.04,0,0,1-7.168-7.363c0-4.564,3.024-7.812,7.2-7.812a9.831,9.831,0,0,1,4.984,1.456l-1.176,2.436c-1.232-1.261-2.408-2.1-3.892-2.1-1.876,0-3.976,1.959-3.976,5.292,0,3.976,2.268,6.188,4.676,6.188a6.993,6.993,0,0,0,3.892-1.4l.812,1.456A8.367,8.367,0,0,1,1272.416,140.39Z"/><path d="M1289.759,139.915v-8.008a6.3,6.3,0,0,0-.645-3.3,2.864,2.864,0,0,0-2.632-1.429,5.639,5.639,0,0,0-3.08.924v11.817h-2.939V118.439h2.939v7.531a8.551,8.551,0,0,1,3.529-.783,5.532,5.532,0,0,1,4.816,2.464,7.217,7.217,0,0,1,.98,4v8.26Z"/><path d="M1308.1,139.915a2.754,2.754,0,0,0-1.372-.42,4.652,4.652,0,0,0-1.372.336,7.567,7.567,0,0,1-2.828.616,6.364,6.364,0,0,1-5.46-2.8,8.509,8.509,0,0,1-1.288-4.677,7.545,7.545,0,0,1,3-6.355,6.7,6.7,0,0,1,4.256-1.4,9.567,9.567,0,0,1,3.416.644l2.24-.532v14.588Zm-2.38-12.124a4.887,4.887,0,0,0-2.492-.7c-2.24,0-4.34,1.792-4.34,5.684,0,2.268.588,3.947,1.792,4.928a3.394,3.394,0,0,0,2.24.84,4.547,4.547,0,0,0,2.8-1.064Z"/><path d="M1321.32,129.079a5.513,5.513,0,0,0-3.864-2.072c-1.428,0-2.492.784-2.492,1.876,0,1.344,1.652,1.848,3.389,2.52,2.239.9,4.843,1.9,4.843,4.48,0,2.883-2.8,4.564-5.683,4.564a12.115,12.115,0,0,1-5.741-1.708l1.205-2.324c1.12,1.064,2.912,2.267,4.507,2.267,1.624,0,2.772-.84,2.772-1.931,0-1.372-1.792-2.016-3.584-2.744-2.184-.9-4.648-1.988-4.648-4.48,0-2.66,2.772-4.284,5.6-4.284a10.2,10.2,0,0,1,4.956,1.4Z"/><path d="M1332.568,140.419c-4.144,0-7.112-3.3-7.112-7.588,0-4.34,3.024-7.616,7.028-7.616a5.841,5.841,0,0,1,6.16,6.16,10.491,10.491,0,0,1-.084,1.232l-10.024.252c.14,3.388,2.1,5.628,4.732,5.628a7.6,7.6,0,0,0,4.088-1.429l.84,1.485A9.158,9.158,0,0,1,1332.568,140.419Zm2.884-9.856c0-2.324-1.344-3.584-2.884-3.584-1.988,0-3.612,1.568-3.892,4.172l6.776-.28Z"/><path d="M1353.587,139.915a2.927,2.927,0,0,0-1.4-.42,4.038,4.038,0,0,0-1.4.336,8.1,8.1,0,0,1-2.912.588,6.355,6.355,0,0,1-5.6-2.94,8.129,8.129,0,0,1-1.2-4.509,7.548,7.548,0,0,1,2.968-6.327,7.873,7.873,0,0,1,7.141-.98v-7.224h3v21.476Zm-2.38-12.46a7.189,7.189,0,0,0-2.184-.42c-2.52,0-4.843,1.82-4.843,5.851,0,2.605,1.259,5.657,4.34,5.657a4.445,4.445,0,0,0,2.66-.924Z"/><path d="M1359.783,140.306a1.859,1.859,0,0,1-1.819-1.847,1.834,1.834,0,1,1,1.819,1.847Z"/></svg>